<svg width="28" height="28" viewBox="0 0 28 28"  xmlns="http://www.w3.org/2000/svg">
<path fill-rule="evenodd" clip-rule="evenodd" d="M18.4257 1.1665C18.9087 1.1665 19.3007 1.5585 19.3007 2.0415L19.3013 3.03062C21.0047 3.14741 22.4195 3.73089 23.4208 4.73429C24.514 5.83212 25.0892 7.41062 25.0834 9.30412V19.9476C25.0834 23.835 22.6147 26.25 18.6422 26.25H8.77449C4.80199 26.25 2.33333 23.8011 2.33333 19.859V9.30179C2.33333 5.63518 4.53489 3.2816 8.12546 3.03102L8.12618 2.0415C8.12618 1.5585 8.51818 1.1665 9.00118 1.1665C9.48418 1.1665 9.87618 1.5585 9.87618 2.0415L9.87583 3.00867H17.5502L17.5507 2.0415C17.5507 1.5585 17.9427 1.1665 18.4257 1.1665ZM23.3333 11.5545H4.08333V19.859C4.08333 22.8526 5.74933 24.5 8.77449 24.5H18.6422C21.6673 24.5 23.3334 22.883 23.3334 19.9476L23.3333 11.5545ZM18.9014 18.8955C19.3844 18.8955 19.7764 19.2875 19.7764 19.7705C19.7764 20.2535 19.3844 20.6455 18.9014 20.6455C18.4184 20.6455 18.0217 20.2535 18.0217 19.7705C18.0217 19.2875 18.4079 18.8955 18.8909 18.8955H18.9014ZM13.7243 18.8955C14.2073 18.8955 14.5993 19.2875 14.5993 19.7705C14.5993 20.2535 14.2073 20.6455 13.7243 20.6455C13.2413 20.6455 12.8446 20.2535 12.8446 19.7705C12.8446 19.2875 13.2308 18.8955 13.7138 18.8955H13.7243ZM8.53638 18.8955C9.01938 18.8955 9.41138 19.2875 9.41138 19.7705C9.41138 20.2535 9.01938 20.6455 8.53638 20.6455C8.05338 20.6455 7.65554 20.2535 7.65554 19.7705C7.65554 19.2875 8.04288 18.8955 8.52588 18.8955H8.53638ZM18.9014 14.361C19.3844 14.361 19.7764 14.753 19.7764 15.236C19.7764 15.719 19.3844 16.111 18.9014 16.111C18.4184 16.111 18.0217 15.719 18.0217 15.236C18.0217 14.753 18.4079 14.361 18.8909 14.361H18.9014ZM13.7243 14.361C14.2073 14.361 14.5993 14.753 14.5993 15.236C14.5993 15.719 14.2073 16.111 13.7243 16.111C13.2413 16.111 12.8446 15.719 12.8446 15.236C12.8446 14.753 13.2308 14.361 13.7138 14.361H13.7243ZM8.53638 14.361C9.01938 14.361 9.41138 14.753 9.41138 15.236C9.41138 15.719 9.01938 16.111 8.53638 16.111C8.05338 16.111 7.65554 15.719 7.65554 15.236C7.65554 14.753 8.04288 14.361 8.52588 14.361H8.53638ZM17.5502 4.75867H9.87583L9.87618 5.881C9.87618 6.364 9.48418 6.756 9.00118 6.756C8.51818 6.756 8.12618 6.364 8.12618 5.881L8.12556 4.78516C5.51196 5.00471 4.08333 6.589 4.08333 9.30179V9.8045H23.3333L23.3334 9.30179C23.338 7.86095 22.9507 6.74095 22.1818 5.97095C21.5069 5.29406 20.5203 4.8898 19.3017 4.78572L19.3007 5.881C19.3007 6.364 18.9087 6.756 18.4257 6.756C17.9427 6.756 17.5507 6.364 17.5507 5.881L17.5502 4.75867Z" />
</svg>
