<svg width="28" height="29" viewBox="0 0 28 29" xmlns="http://www.w3.org/2000/svg">
<path fill-rule="evenodd" clip-rule="evenodd" d="M7.29168 15.6667C12.0388 15.6667 12.25 17.2767 12.25 20.625C12.25 22.3027 12.25 23.4962 11.5453 24.37C10.7345 25.3769 9.25868 25.5834 7.29168 25.5834C5.32468 25.5834 3.84884 25.3769 3.03801 24.37C2.33334 23.4962 2.33334 22.3039 2.33334 20.6542L3.20834 20.625H2.33334C2.33334 17.2767 2.54451 15.6667 7.29168 15.6667ZM20.125 15.6667C24.8722 15.6667 25.0833 17.2767 25.0833 20.625C25.0833 22.3027 25.0833 23.4962 24.3787 24.37C23.5678 25.3769 22.092 25.5834 20.125 25.5834C18.158 25.5834 16.6822 25.3769 15.8713 24.37C15.1667 23.4962 15.1667 22.3039 15.1667 20.6542L16.0417 20.625H15.1667C15.1667 17.2767 15.3778 15.6667 20.125 15.6667ZM7.5322 17.4172L7.29168 17.4167C4.24787 17.4167 4.09178 17.6351 4.08378 20.1899L4.08427 21.1853C4.0898 22.2014 4.12851 22.9354 4.39951 23.2734C4.70868 23.656 5.62684 23.8334 7.29168 23.8334C8.95651 23.8334 9.87468 23.6549 10.1838 23.2722C10.5 22.879 10.5 21.9457 10.5 20.653C10.5 17.7361 10.5 17.431 7.5322 17.4172ZM20.3655 17.4172L20.125 17.4167C17.0812 17.4167 16.9251 17.6351 16.9171 20.1899L16.9176 21.1853C16.9231 22.2014 16.9618 22.9354 17.2328 23.2734C17.542 23.656 18.4602 23.8334 20.125 23.8334C21.7898 23.8334 22.708 23.6549 23.0172 23.2722C23.3333 22.879 23.3333 21.9457 23.3333 20.653C23.3333 17.7361 23.3333 17.431 20.3655 17.4172ZM7.29168 2.83337C12.0388 2.83337 12.25 4.44337 12.25 7.79171C12.25 9.46937 12.25 10.6629 11.5453 11.5367C10.7345 12.5435 9.25868 12.75 7.29168 12.75C5.32468 12.75 3.84884 12.5435 3.03801 11.5367C2.33334 10.6629 2.33334 9.47054 2.33334 7.82087L3.20834 7.79171H2.33334C2.33334 4.44337 2.54451 2.83337 7.29168 2.83337ZM20.125 2.83337C24.8722 2.83337 25.0833 4.44337 25.0833 7.79171C25.0833 9.46937 25.0833 10.6629 24.3787 11.5367C23.5678 12.5435 22.092 12.75 20.125 12.75C18.158 12.75 16.6822 12.5435 15.8713 11.5367C15.1667 10.6629 15.1667 9.47054 15.1667 7.82087L16.0417 7.79171H15.1667C15.1667 4.44337 15.3778 2.83337 20.125 2.83337ZM7.5322 4.58389L7.29168 4.58337C4.24787 4.58337 4.09178 4.80179 4.08378 7.3566L4.08427 8.35192C4.0898 9.36804 4.12851 10.102 4.39951 10.44C4.70868 10.8227 5.62684 11 7.29168 11C8.95651 11 9.87468 10.8215 10.1838 10.4389C10.5 10.0457 10.5 9.11237 10.5 7.81971C10.5 4.9028 10.5 4.59763 7.5322 4.58389ZM20.3655 4.58389L20.125 4.58337C17.0812 4.58337 16.9251 4.80179 16.9171 7.3566L16.9176 8.35192C16.9231 9.36804 16.9618 10.102 17.2328 10.44C17.542 10.8227 18.4602 11 20.125 11C21.7898 11 22.708 10.8215 23.0172 10.4389C23.3333 10.0457 23.3333 9.11237 23.3333 7.81971C23.3333 4.9028 23.3333 4.59763 20.3655 4.58389Z" />
</svg>
