<svg width="28" height="28" viewBox="0 0 28 28" xmlns="http://www.w3.org/2000/svg">
<path fill-rule="evenodd"
 clip-rule="evenodd"
  d="M16.0029 17.8401C17.4076 17.8401 18.5509 18.9753 18.5509 20.3706V23.9593C18.5509 24.2591 18.7913 24.4995 19.0993 24.5065H21.3229C23.0753 24.5065 24.4998 23.0995 24.4998 21.3705V11.1925C24.4916 10.5975 24.2081 10.0375 23.7216 9.66529L16.0298 3.53095C14.9973 2.71312 13.5529 2.71312 12.5169 3.53328L4.8776 9.66295C4.37243 10.0468 4.08893 10.6068 4.0831 11.2123V21.3705C4.0831 23.0995 5.5076 24.5065 7.25993 24.5065H9.5046C9.82077 24.5065 10.0774 24.2556 10.0774 23.9476C10.0774 23.88 10.0856 23.8123 10.0996 23.7481V20.3706C10.0996 18.9835 11.2359 17.8495 12.6301 17.8401H16.0029ZM21.3229 26.2565H19.0783C17.7926 26.2261 16.8009 25.217 16.8009 23.9593V20.3706C16.8009 19.9401 16.4428 19.5901 16.0029 19.5901H12.6359C12.2054 19.5925 11.8496 19.9436 11.8496 20.3706V23.9476C11.8496 24.0351 11.8379 24.1191 11.8134 24.1985C11.6874 25.3535 10.7004 26.2565 9.5046 26.2565H7.25993C4.54277 26.2565 2.3331 24.0643 2.3331 21.3705V11.2041C2.34477 10.0445 2.8791 8.98278 3.80193 8.28395L11.4261 2.16478C13.1049 0.834784 15.4441 0.834784 17.1194 2.16245L24.7984 8.28745C25.7003 8.97462 26.2346 10.034 26.2498 11.1796V21.3705C26.2498 24.0643 24.0401 26.2565 21.3229 26.2565Z" />
</svg>
