<svg width="20" height="22" viewBox="0 0 20 22" fill="none" xmlns="http://www.w3.org/2000/svg">
<path fill-rule="evenodd" clip-rule="evenodd" d="M13.7935 0.263672C14.2075 0.263672 14.5435 0.599672 14.5435 1.01367L14.544 1.86148C16.0041 1.96159 17.2167 2.46172 18.075 3.32177C19.012 4.26277 19.505 5.61577 19.5 7.23877V16.3618C19.5 19.6938 17.384 21.7638 13.979 21.7638H5.521C2.116 21.7638 0 19.6648 0 16.2858V7.23677C0 4.09396 1.88706 2.07661 4.96469 1.86183L4.9653 1.01367C4.9653 0.599672 5.3013 0.263672 5.7153 0.263672C6.1293 0.263672 6.4653 0.599672 6.4653 1.01367L6.465 1.84267H13.043L13.0435 1.01367C13.0435 0.599672 13.3795 0.263672 13.7935 0.263672ZM18 9.16767H1.5V16.2858C1.5 18.8518 2.928 20.2638 5.521 20.2638H13.979C16.572 20.2638 18 18.8778 18 16.3618L18 9.16767ZM14.2012 15.46C14.6152 15.46 14.9512 15.796 14.9512 16.21C14.9512 16.624 14.6152 16.96 14.2012 16.96C13.7872 16.96 13.4472 16.624 13.4472 16.21C13.4472 15.796 13.7782 15.46 14.1922 15.46H14.2012ZM9.7637 15.46C10.1777 15.46 10.5137 15.796 10.5137 16.21C10.5137 16.624 10.1777 16.96 9.7637 16.96C9.3497 16.96 9.0097 16.624 9.0097 16.21C9.0097 15.796 9.3407 15.46 9.7547 15.46H9.7637ZM5.3169 15.46C5.7309 15.46 6.0669 15.796 6.0669 16.21C6.0669 16.624 5.7309 16.96 5.3169 16.96C4.9029 16.96 4.5619 16.624 4.5619 16.21C4.5619 15.796 4.8939 15.46 5.3079 15.46H5.3169ZM14.2012 11.5733C14.6152 11.5733 14.9512 11.9093 14.9512 12.3233C14.9512 12.7373 14.6152 13.0733 14.2012 13.0733C13.7872 13.0733 13.4472 12.7373 13.4472 12.3233C13.4472 11.9093 13.7782 11.5733 14.1922 11.5733H14.2012ZM9.7637 11.5733C10.1777 11.5733 10.5137 11.9093 10.5137 12.3233C10.5137 12.7373 10.1777 13.0733 9.7637 13.0733C9.3497 13.0733 9.0097 12.7373 9.0097 12.3233C9.0097 11.9093 9.3407 11.5733 9.7547 11.5733H9.7637ZM5.3169 11.5733C5.7309 11.5733 6.0669 11.9093 6.0669 12.3233C6.0669 12.7373 5.7309 13.0733 5.3169 13.0733C4.9029 13.0733 4.5619 12.7373 4.5619 12.3233C4.5619 11.9093 4.8939 11.5733 5.3079 11.5733H5.3169ZM13.043 3.34267H6.465L6.4653 4.30467C6.4653 4.71867 6.1293 5.05467 5.7153 5.05467C5.3013 5.05467 4.9653 4.71867 4.9653 4.30467L4.96477 3.36537C2.72454 3.55356 1.5 4.91153 1.5 7.23677V7.66767H18L18 7.23677C18.004 6.00177 17.672 5.04177 17.013 4.38177C16.4345 3.80158 15.5889 3.45507 14.5444 3.36585L14.5435 4.30467C14.5435 4.71867 14.2075 5.05467 13.7935 5.05467C13.3795 5.05467 13.0435 4.71867 13.0435 4.30467L13.043 3.34267Z" fill="black"/>
</svg>
