<svg width="60" height="60" viewBox="0 0 60 60" fill="none" xmlns="http://www.w3.org/2000/svg">
<circle opacity="0.5" cx="30" cy="30" r="30" fill="#E6E6E6"/>
<path d="M34.025 16.5C35.48 16.515 36.665 17.2642 37.355 18.6127C37.5331 18.9685 37.7816 19.4882 38.0417 20.0365L38.3558 20.6995L38.51 21.025L38.66 21.3546C38.72 21.4595 38.825 21.5344 38.96 21.5344C42.56 21.5344 45.5 24.4711 45.5 28.0671V36.9673C45.5 40.5633 42.56 43.5 38.96 43.5H22.04C18.425 43.5 15.5 40.5633 15.5 36.9673V28.0671C15.5 24.4711 18.425 21.5344 22.04 21.5344C22.16 21.5344 22.28 21.4745 22.325 21.3546L22.415 21.1748C22.835 20.2908 23.345 19.212 23.645 18.6127C24.335 17.2642 25.505 16.515 26.96 16.5H34.025ZM30.5 26.1043C28.925 26.1043 27.44 26.7186 26.315 27.8424C25.205 28.9661 24.59 30.4345 24.605 31.9928C24.605 33.566 25.22 35.0344 26.33 36.1582C27.455 37.2669 28.925 37.8812 30.5 37.8812C32.12 37.8812 33.59 37.222 34.655 36.1582C35.72 35.0943 36.38 33.626 36.395 31.9928C36.395 30.4345 35.78 28.9512 34.67 27.8274C33.56 26.7186 32.075 26.1043 30.5 26.1043ZM30.5 28.3518C31.475 28.3518 32.39 28.7264 33.08 29.4156C33.77 30.1049 34.145 31.0189 34.145 31.9928C34.13 34.0006 32.51 35.6337 30.5 35.6337C29.525 35.6337 28.61 35.2592 27.92 34.5699C27.23 33.8807 26.855 32.9667 26.855 31.9928V31.9778C26.84 31.0339 27.215 30.1199 27.905 29.4306C28.61 28.7264 29.525 28.3518 30.5 28.3518ZM38.915 25.7447C38.165 25.7447 37.565 26.359 37.565 27.1082C37.565 27.8574 38.165 28.4567 38.915 28.4567C39.665 28.4567 40.28 27.8574 40.28 27.1082C40.28 26.359 39.665 25.7447 38.915 25.7447Z" fill="#272727"/>
</svg>
