<svg width="20" height="20" viewBox="0 0 20 20" fill="none" xmlns="http://www.w3.org/2000/svg">
<path fill-rule="evenodd" clip-rule="evenodd" d="M10.0001 0C15.5141 0 20.0001 4.486 20.0001 10C20.0001 15.514 15.5141 20 10.0001 20C4.48612 20 0.00012207 15.514 0.00012207 10C0.00012207 4.486 4.48612 0 10.0001 0ZM10.0001 1.5C5.31312 1.5 1.50012 5.313 1.50012 10C1.50012 14.687 5.31312 18.5 10.0001 18.5C14.6871 18.5 18.5001 14.687 18.5001 10C18.5001 5.313 14.6871 1.5 10.0001 1.5Z" fill="black"/>
<path fill-rule="evenodd" clip-rule="evenodd" d="M7.58085 6.46447C7.27254 6.15616 6.77268 6.15616 6.46437 6.46447C6.15606 6.77278 6.15606 7.27264 6.46437 7.58095L8.88342 10L6.46437 12.4191C6.15606 12.7274 6.15606 13.2272 6.46437 13.5355C6.77268 13.8438 7.27254 13.8438 7.58085 13.5355L9.9999 11.1165L12.419 13.5355C12.7273 13.8438 13.2271 13.8438 13.5354 13.5355C13.8437 13.2272 13.8437 12.7274 13.5354 12.4191L11.1164 10L13.5354 7.58095C13.8437 7.27264 13.8437 6.77278 13.5354 6.46447C13.2271 6.15616 12.7273 6.15616 12.419 6.46447L9.9999 8.88352L7.58085 6.46447Z" fill="black"/>
</svg>
