<svg width="89" height="89" viewBox="0 0 89 89" fill="none" xmlns="http://www.w3.org/2000/svg">
<rect width="89" height="89" rx="24" fill="#C4C4C4"/>
<path d="M53.1676 24.5C59.9462 24.5 64.5 29.2562 64.5 36.3334V52.6666C64.5 59.7438 59.9462 64.5 53.1656 64.5H35.8324C29.0538 64.5 24.5 59.7438 24.5 52.6666V36.3334C24.5 29.2562 29.0538 24.5 35.8324 24.5H53.1676ZM55.3732 45.6001C53.2293 44.2626 51.5741 46.1409 51.1276 46.7415C50.6973 47.3215 50.3272 47.9613 49.937 48.6011C48.9837 50.1801 47.8917 52.0005 46.0012 53.0593C43.254 54.5805 41.1684 53.1791 39.6681 52.1594C39.105 51.7797 38.5579 51.4205 38.0129 51.1811C36.6695 50.6011 35.4608 51.2616 33.6668 53.5402C32.7256 54.7312 31.7924 55.9118 30.8472 57.0882C30.282 57.7921 30.4168 58.8777 31.179 59.3483C32.3958 60.0975 33.88 60.5 35.5573 60.5H52.4128C53.364 60.5 54.3173 60.37 55.2264 60.0728C57.2737 59.404 58.8987 57.8726 59.7474 55.8498C60.4634 54.1491 60.8113 52.0851 60.1416 50.3679C59.9184 49.7982 59.5845 49.2678 59.1159 48.8013C57.8871 47.5815 56.7388 46.4422 55.3732 45.6001ZM37.4977 32.5C34.7404 32.5 32.5 34.7435 32.5 37.5C32.5 40.2565 34.7404 42.5 37.4977 42.5C40.253 42.5 42.4954 40.2565 42.4954 37.5C42.4954 34.7435 40.253 32.5 37.4977 32.5Z" fill="#272727"/>
</svg>
