<svg width="25" height="24" viewBox="0 0 25 24" fill="none" xmlns="http://www.w3.org/2000/svg">
<circle cx="12.3555" cy="12" r="10" fill="#94E278"/>
<path fill-rule="evenodd" clip-rule="evenodd" d="M12.3555 22C6.84147 22 2.35547 17.514 2.35547 12C2.35547 6.486 6.84147 2 12.3555 2C17.8695 2 22.3555 6.486 22.3555 12C22.3555 17.514 17.8695 22 12.3555 22ZM12.3555 20.5C17.0425 20.5 20.8555 16.687 20.8555 12C20.8555 7.313 17.0425 3.5 12.3555 3.5C7.66847 3.5 3.85547 7.313 3.85547 12C3.85547 16.687 7.66847 20.5 12.3555 20.5Z" fill="black"/>
<path fill-rule="evenodd" clip-rule="evenodd" d="M17.4502 8.44794C17.7431 8.74083 17.7431 9.21571 17.4502 9.5086L11.4067 15.5521C11.1138 15.845 10.6389 15.845 10.346 15.5521L7.26081 12.4669C6.96791 12.174 6.96791 11.6991 7.26081 11.4062C7.5537 11.1134 8.02857 11.1134 8.32147 11.4062L10.8763 13.9611L16.3895 8.44794C16.6824 8.15505 17.1573 8.15505 17.4502 8.44794Z" fill="black"/>
</svg>
