<svg width="24" height="25" viewBox="0 0 24 25" fill="none" xmlns="http://www.w3.org/2000/svg">
<path fill-rule="evenodd" clip-rule="evenodd" d="M12 22.9336C6.486 22.9336 2 18.4476 2 12.9336C2 7.41959 6.486 2.93359 12 2.93359C17.514 2.93359 22 7.41959 22 12.9336C22 18.4476 17.514 22.9336 12 22.9336ZM12 21.4336C16.687 21.4336 20.5 17.6206 20.5 12.9336C20.5 8.24659 16.687 4.43359 12 4.43359C7.313 4.43359 3.5 8.24659 3.5 12.9336C3.5 17.6206 7.313 21.4336 12 21.4336ZM11.4683 15.5072L7.9973 12.0202C7.7053 11.7262 7.7063 11.2522 7.9993 10.9602C8.1453 10.8142 8.3373 10.7412 8.5283 10.7412C8.7203 10.7412 8.9133 10.8142 9.0593 10.9622L12.0003 13.9152L14.9393 10.9622C15.2313 10.6682 15.7063 10.6682 16.0003 10.9602C16.2933 11.2522 16.2953 11.7262 16.0023 12.0202L12.5313 15.5072C12.2503 15.7902 11.7503 15.7902 11.4683 15.5072Z" fill="black"/>
</svg>
