<svg width="215" height="155" viewBox="0 0 215 155" fill="none" xmlns="http://www.w3.org/2000/svg">
<rect x="24" width="153" height="153" rx="76.5" fill="#58AECC"/>
<rect x="177.5" y="14.6639" width="13.571" height="13.571" rx="6.78552" fill="#E6E6E6" stroke="#272727"/>
<rect x="0.00683594" y="112.3" width="6.98578" height="6.98578" rx="3.49289" fill="#272727"/>
<rect x="11.7715" y="17.9565" width="6.98578" height="6.98578" rx="3.49289" fill="#272727"/>
<rect x="170.514" y="140.517" width="13.7769" height="13.7769" rx="6.88844" fill="#E6E6E6" stroke="#272727"/>
<rect x="12.2715" y="119.786" width="13.7769" height="13.7769" rx="6.88844" fill="#E6E6E6" stroke="#272727"/>
<rect x="194.659" y="32.2671" width="20.0477" height="20.0477" rx="10.0239" fill="#272727"/>
<path fill-rule="evenodd" clip-rule="evenodd" d="M152.375 53.8478C154.419 55.8918 154.419 59.206 152.375 61.2501L108.347 105.278C99.3841 114.241 84.853 114.241 75.8905 105.278L49.43 78.8177C47.386 76.7736 47.386 73.4595 49.43 71.4154C51.4741 69.3713 54.7882 69.3713 56.8323 71.4154L83.2927 97.8758C88.1671 102.75 96.07 102.75 100.944 97.8758L144.972 53.8478C147.017 51.8037 150.331 51.8037 152.375 53.8478Z" fill="black"/>
<path fill-rule="evenodd" clip-rule="evenodd" d="M144.118 52.9937C146.634 50.4779 150.713 50.4779 153.229 52.9937C155.745 55.5095 155.745 59.5884 153.229 62.1042L109.201 106.132C99.7667 115.566 84.4707 115.566 75.0365 106.132L48.5761 79.6718C46.0603 77.156 46.0603 73.0771 48.5761 70.5613C51.0919 68.0455 55.1708 68.0455 57.6866 70.5613L84.147 97.0217C88.5496 101.424 95.6877 101.424 100.09 97.0217L144.118 52.9937ZM151.521 54.7019C149.948 53.1295 147.399 53.1295 145.827 54.7019L101.799 98.7299C96.4525 104.076 87.7848 104.076 82.4388 98.7299L55.9783 72.2695C54.406 70.6972 51.8567 70.6972 50.2843 72.2695L49.4302 71.4154L50.2843 72.2695C48.7119 73.8419 48.7119 76.3912 50.2843 77.9636L49.4302 78.8177L50.2843 77.9636L76.7447 104.424C85.2355 112.915 99.0019 112.915 107.493 104.424L151.521 60.396C153.093 58.8236 153.093 56.2743 151.521 54.7019Z" fill="black"/>
</svg>
