<svg width="315" height="315" viewBox="0 0 315 315" fill="none" xmlns="http://www.w3.org/2000/svg">
<rect x="0.5" y="0.499878" width="314" height="314" rx="35.5" fill="white" stroke="#272727"/>
<path opacity="0.5" fill-rule="evenodd" clip-rule="evenodd" d="M250.381 23.365C250.381 21.7826 251.664 20.4999 253.246 20.4999H275.263C285.887 20.4999 294.5 29.1127 294.5 39.7371V61.7533C294.5 63.3357 293.217 64.6185 291.635 64.6185C290.052 64.6185 288.77 63.3357 288.77 61.7533V39.7371C288.77 32.2774 282.722 26.2301 275.263 26.2301H253.246C251.664 26.2301 250.381 24.9474 250.381 23.365Z" fill="black"/>
<path opacity="0.5" fill-rule="evenodd" clip-rule="evenodd" d="M155.444 180.454C155.444 181.59 156.364 182.511 157.5 182.511C158.636 182.511 159.556 181.59 159.556 180.454V164.884H175.126C176.262 164.884 177.183 163.964 177.183 162.828C177.183 161.692 176.262 160.772 175.126 160.772H159.556V145.202C159.556 144.066 158.636 143.145 157.5 143.145C156.364 143.145 155.444 144.066 155.444 145.202V160.772H139.874C138.738 160.772 137.817 161.692 137.817 162.828C137.817 163.964 138.738 164.884 139.874 164.884H155.444V180.454Z" fill="black"/>
<path opacity="0.5" fill-rule="evenodd" clip-rule="evenodd" d="M250.381 291.635C250.381 293.217 251.664 294.5 253.246 294.5H275.263C285.887 294.5 294.5 285.887 294.5 275.263V253.246C294.5 251.664 293.217 250.381 291.635 250.381C290.052 250.381 288.77 251.664 288.77 253.246V275.263C288.77 282.722 282.722 288.77 275.263 288.77H253.246C251.664 288.77 250.381 290.053 250.381 291.635Z" fill="black"/>
<path opacity="0.5" fill-rule="evenodd" clip-rule="evenodd" d="M64.6187 23.365C64.6187 21.7826 63.3359 20.4999 61.7535 20.4999H39.7373C29.1129 20.4999 20.5001 29.1127 20.5001 39.7371V61.7533C20.5001 63.3357 21.7828 64.6185 23.3652 64.6185C24.9476 64.6185 26.2303 63.3357 26.2303 61.7533V39.7371C26.2303 32.2774 32.2776 26.2301 39.7373 26.2301H61.7535C63.3359 26.2301 64.6187 24.9474 64.6187 23.365Z" fill="black"/>
<path opacity="0.5" fill-rule="evenodd" clip-rule="evenodd" d="M64.6187 291.635C64.6187 293.217 63.3359 294.5 61.7535 294.5H39.7373C29.1128 294.5 20.5 285.887 20.5 275.263V253.246C20.5 251.664 21.7828 250.381 23.3652 250.381C24.9475 250.381 26.2303 251.664 26.2303 253.246V275.263C26.2303 282.722 32.2776 288.77 39.7373 288.77H61.7535C63.3359 288.77 64.6187 290.053 64.6187 291.635Z" fill="black"/>
</svg>
