<svg width="24" height="24" viewBox="0 0 24 24" fill="none" xmlns="http://www.w3.org/2000/svg">
<path d="M24 5.53833H0V7.38426H24V5.53833Z" fill="#F5F5F5"/>
<path d="M22.7468 1.84619H1.25331C0.798249 2.38 0.448046 3.00593 0.235046 3.69237H23.7651C23.5521 3.00593 23.2019 2.38 22.7468 1.84619Z" fill="#F5F5F5"/>
<path d="M24 9.23059H0V11.0765H24V9.23059Z" fill="#F5F5F5"/>
<path d="M24 12.923H0V14.7689H24V12.923Z" fill="#F5F5F5"/>
<path d="M24 16.6154H0V18.4613H24V16.6154Z" fill="#F5F5F5"/>
<path d="M23.7651 20.3077H0.235046C0.448 20.9942 0.798249 21.6201 1.25331 22.1539H22.7468C23.2019 21.6201 23.5521 20.9942 23.7651 20.3077Z" fill="#F5F5F5"/>
<path d="M18.75 0H5.25005C3.64936 0 2.21625 0.716578 1.2533 1.84617H22.7467C21.7838 0.716578 20.3507 0 18.75 0Z" fill="#DB5158"/>
<path d="M24 7.38464H0V9.23058H24V7.38464Z" fill="#DB5158"/>
<path d="M24 5.25004C24 4.70765 23.9177 4.18452 23.765 3.69238H0.234984C0.0822656 4.18452 0 4.70765 0 5.25004V5.53851H24V5.25004Z" fill="#DB5158"/>
<path d="M24 11.077H0V12.923H24V11.077Z" fill="#DB5158"/>
<path d="M24 18.75V18.4615H0V18.75C0 19.2924 0.0822656 19.8155 0.234984 20.3077H23.765C23.9177 19.8155 24 19.2924 24 18.75Z" fill="#DB5158"/>
<path d="M22.7468 22.1538H1.2533C2.21625 23.2834 3.64936 24 5.25005 24H18.75C20.3507 24 21.7838 23.2834 22.7468 22.1538Z" fill="#DB5158"/>
<path d="M24 14.7694H0V16.6153H24V14.7694Z" fill="#DB5158"/>
<path d="M12.9231 0H5.25C2.3505 0 0 2.3505 0 5.25V12.9231H12.9231V0Z" fill="#41479B"/>
<path d="M1.39434 2.0185C1.38206 2.05736 1.42626 2.08952 1.45945 2.0658L1.71553 1.8828L1.97161 2.0658C2.00475 2.08952 2.049 2.05736 2.03672 2.0185L1.94179 1.71841L2.19501 1.53143C2.22778 1.50719 2.2109 1.45521 2.17012 1.45488L1.8554 1.45244L1.80168 1.29138C1.66678 1.40899 1.53811 1.53349 1.4159 1.66413L1.48936 1.71841L1.39434 2.0185Z" fill="#F5F5F5"/>
<path d="M1.75575 3.64473L1.85531 3.94332L2.17003 3.94576C2.21076 3.94609 2.22769 3.99807 2.19492 4.02231L1.9417 4.20929L2.03662 4.50938C2.0489 4.54824 2.0047 4.58035 1.97151 4.55668L1.71544 4.37363L1.45936 4.55668C1.42622 4.5804 1.38197 4.54824 1.39425 4.50938L1.48917 4.20929L1.23595 4.02231C1.20318 3.99812 1.22006 3.94609 1.26079 3.94576L1.57551 3.94332L1.67508 3.64473C1.68815 3.60605 1.74286 3.60605 1.75575 3.64473Z" fill="#F5F5F5"/>
<path d="M1.75575 6.4073L1.85531 6.70589L2.17003 6.70833C2.21076 6.70866 2.22769 6.76064 2.19492 6.78487L1.9417 6.97186L2.03662 7.27195C2.0489 7.31081 2.0047 7.34292 1.97151 7.31925L1.71544 7.13625L1.45936 7.31925C1.42622 7.34292 1.38197 7.31081 1.39425 7.27195L1.48917 6.97186L1.23595 6.78487C1.20318 6.76069 1.22006 6.70866 1.26079 6.70833L1.57551 6.70589L1.67508 6.4073C1.68815 6.36863 1.74286 6.36863 1.75575 6.4073Z" fill="#F5F5F5"/>
<path d="M1.75575 8.94539L1.85531 9.24398L2.17003 9.24641C2.21076 9.24674 2.22769 9.29873 2.19492 9.32296L1.9417 9.50994L2.03662 9.81004C2.0489 9.84889 2.0047 9.881 1.97151 9.85733L1.71544 9.67429L1.45936 9.85733C1.42622 9.881 1.38197 9.84889 1.39425 9.81004L1.48917 9.50994L1.23595 9.32296C1.20318 9.29877 1.22006 9.24674 1.26079 9.24641L1.57551 9.24398L1.67508 8.94539C1.68815 8.90671 1.74286 8.90671 1.75575 8.94539Z" fill="#F5F5F5"/>
<path d="M1.75575 11.255L1.85531 11.5535L2.17003 11.556C2.21076 11.5563 2.22769 11.6083 2.19492 11.6325L1.9417 11.8195L2.03662 12.1196C2.0489 12.1585 2.0047 12.1906 1.97151 12.1669L1.71544 11.9839L1.45936 12.1669C1.42622 12.1906 1.38197 12.1585 1.39425 12.1196L1.48917 11.8195L1.23595 11.6325C1.20318 11.6083 1.22006 11.5563 1.26079 11.556L1.57551 11.5535L1.67508 11.255C1.68815 11.2163 1.74286 11.2163 1.75575 11.255Z" fill="#F5F5F5"/>
<path d="M2.9681 2.33345L3.06766 2.63204L3.38238 2.63448C3.42311 2.63481 3.44003 2.68679 3.40727 2.71098L3.15405 2.89796L3.24897 3.19806C3.26125 3.23692 3.21705 3.26907 3.18386 3.24536L2.92788 3.06231L2.6718 3.24536C2.63866 3.26907 2.59441 3.23692 2.60669 3.19806L2.70162 2.89796L2.44844 2.71098C2.41568 2.68679 2.43255 2.63476 2.47329 2.63448L2.78801 2.63204L2.88757 2.33345C2.90051 2.29478 2.95521 2.29478 2.9681 2.33345Z" fill="#F5F5F5"/>
<path d="M2.96807 5.09602L3.06763 5.39461L3.38235 5.39705C3.42308 5.39738 3.44001 5.44936 3.40724 5.4736L3.15402 5.66058L3.24894 5.96068C3.26123 5.99954 3.21702 6.03169 3.18383 6.00798L2.92776 5.82493L2.67168 6.00798C2.63854 6.03169 2.59429 5.99954 2.60657 5.96068L2.70149 5.66058L2.44832 5.4736C2.41556 5.44941 2.43243 5.39738 2.47317 5.39705L2.78788 5.39461L2.88745 5.09602C2.90048 5.05735 2.95518 5.05735 2.96807 5.09602Z" fill="#F5F5F5"/>
<path d="M2.96807 7.7205L3.06763 8.01909L3.38235 8.02153C3.42308 8.02186 3.44001 8.07384 3.40724 8.09808L3.15402 8.28506L3.24894 8.58516C3.26123 8.62402 3.21702 8.65613 3.18383 8.63246L2.92776 8.44941L2.67168 8.63246C2.63854 8.65617 2.59429 8.62402 2.60657 8.58516L2.70149 8.28506L2.44832 8.09808C2.41556 8.07389 2.43243 8.02186 2.47317 8.02153L2.78788 8.01909L2.88745 7.7205C2.90048 7.68187 2.95518 7.68187 2.96807 7.7205Z" fill="#F5F5F5"/>
<path d="M2.96807 10.0775L3.06763 10.3761L3.38235 10.3785C3.42308 10.3788 3.44001 10.4308 3.40724 10.455L3.15402 10.642L3.24894 10.9421C3.26123 10.981 3.21702 11.0131 3.18383 10.9894L2.92776 10.8064L2.67168 10.9894C2.63854 11.0131 2.59429 10.981 2.60657 10.9421L2.70149 10.642L2.44832 10.455C2.41556 10.4309 2.43243 10.3788 2.47317 10.3785L2.78788 10.3761L2.88745 10.0775C2.90048 10.0388 2.95518 10.0388 2.96807 10.0775Z" fill="#F5F5F5"/>
<path d="M4.18035 1.15397L4.27991 1.45256L4.59463 1.455C4.63537 1.45533 4.65229 1.50731 4.61952 1.5315L4.3663 1.71848L4.46123 2.01858C4.47351 2.05744 4.4293 2.08955 4.39612 2.06587L4.14004 1.88283L3.88396 2.06587C3.85082 2.08959 3.80657 2.05744 3.81885 2.01858L3.91377 1.71848L3.6606 1.5315C3.62784 1.50731 3.64471 1.45528 3.68545 1.455L4.00016 1.45256L4.09973 1.15397C4.11276 1.11534 4.16746 1.11534 4.18035 1.15397Z" fill="#F5F5F5"/>
<path d="M4.18035 3.64473L4.27991 3.94332L4.59463 3.94576C4.63537 3.94609 4.65229 3.99807 4.61952 4.02231L4.3663 4.20929L4.46123 4.50938C4.47351 4.54824 4.4293 4.58035 4.39612 4.55668L4.14004 4.37363L3.88396 4.55668C3.85082 4.5804 3.80657 4.54824 3.81885 4.50938L3.91377 4.20929L3.6606 4.02231C3.62784 3.99812 3.64471 3.94609 3.68545 3.94576L4.00016 3.94332L4.09973 3.64473C4.11276 3.60605 4.16746 3.60605 4.18035 3.64473Z" fill="#F5F5F5"/>
<path d="M4.18035 6.4073L4.27991 6.70589L4.59463 6.70833C4.63537 6.70866 4.65229 6.76064 4.61952 6.78487L4.3663 6.97186L4.46123 7.27195C4.47351 7.31081 4.4293 7.34292 4.39612 7.31925L4.14004 7.13625L3.88396 7.31925C3.85082 7.34292 3.80657 7.31081 3.81885 7.27195L3.91377 6.97186L3.6606 6.78487C3.62784 6.76069 3.64471 6.70866 3.68545 6.70833L4.00016 6.70589L4.09973 6.4073C4.11276 6.36863 4.16746 6.36863 4.18035 6.4073Z" fill="#F5F5F5"/>
<path d="M4.18035 8.94539L4.27991 9.24398L4.59463 9.24641C4.63537 9.24674 4.65229 9.29873 4.61952 9.32296L4.3663 9.50994L4.46123 9.81004C4.47351 9.84889 4.4293 9.881 4.39612 9.85733L4.14004 9.67429L3.88396 9.85733C3.85082 9.881 3.80657 9.84889 3.81885 9.81004L3.91377 9.50994L3.6606 9.32296C3.62784 9.29877 3.64471 9.24674 3.68545 9.24641L4.00016 9.24398L4.09973 8.94539C4.11276 8.90671 4.16746 8.90671 4.18035 8.94539Z" fill="#F5F5F5"/>
<path d="M4.18035 11.255L4.27991 11.5535L4.59463 11.556C4.63537 11.5563 4.65229 11.6083 4.61952 11.6325L4.3663 11.8195L4.46123 12.1196C4.47351 12.1585 4.4293 12.1906 4.39612 12.1669L4.14004 11.9839L3.88396 12.1669C3.85082 12.1906 3.80657 12.1585 3.81885 12.1196L3.91377 11.8195L3.6606 11.6325C3.62784 11.6083 3.64471 11.5563 3.68545 11.556L4.00016 11.5535L4.09973 11.255C4.11276 11.2163 4.16746 11.2163 4.18035 11.255Z" fill="#F5F5F5"/>
<path d="M5.39268 2.33345L5.49224 2.63204L5.80696 2.63448C5.84769 2.63481 5.86462 2.68679 5.8318 2.71098L5.57863 2.89796L5.67355 3.19806C5.68584 3.23692 5.64163 3.26907 5.60844 3.24536L5.35237 3.06231L5.09629 3.24536C5.06315 3.26907 5.0189 3.23692 5.03118 3.19806L5.1261 2.89796L4.87288 2.71098C4.84011 2.68679 4.85699 2.63476 4.89777 2.63448L5.21249 2.63204L5.31205 2.33345C5.32513 2.29478 5.37979 2.29478 5.39268 2.33345Z" fill="#F5F5F5"/>
<path d="M5.39268 5.09602L5.49224 5.39461L5.80696 5.39705C5.84769 5.39738 5.86462 5.44936 5.8318 5.4736L5.57863 5.66058L5.67355 5.96068C5.68584 5.99954 5.64163 6.03169 5.60844 6.00798L5.35237 5.82493L5.09629 6.00798C5.06315 6.03169 5.0189 5.99954 5.03118 5.96068L5.1261 5.66058L4.87288 5.4736C4.84011 5.44941 4.85699 5.39738 4.89777 5.39705L5.21249 5.39461L5.31205 5.09602C5.32513 5.05735 5.37979 5.05735 5.39268 5.09602Z" fill="#F5F5F5"/>
<path d="M5.39268 7.7205L5.49224 8.01909L5.80696 8.02153C5.84769 8.02186 5.86462 8.07384 5.8318 8.09808L5.57863 8.28506L5.67355 8.58516C5.68584 8.62402 5.64163 8.65613 5.60844 8.63246L5.35237 8.44941L5.09629 8.63246C5.06315 8.65617 5.0189 8.62402 5.03118 8.58516L5.1261 8.28506L4.87288 8.09808C4.84011 8.07389 4.85699 8.02186 4.89777 8.02153L5.21249 8.01909L5.31205 7.7205C5.32513 7.68187 5.37979 7.68187 5.39268 7.7205Z" fill="#F5F5F5"/>
<path d="M5.39268 10.0775L5.49224 10.3761L5.80696 10.3785C5.84769 10.3788 5.86462 10.4308 5.8318 10.455L5.57863 10.642L5.67355 10.9421C5.68584 10.981 5.64163 11.0131 5.60844 10.9894L5.35237 10.8064L5.09629 10.9894C5.06315 11.0131 5.0189 10.981 5.03118 10.9421L5.1261 10.642L4.87288 10.455C4.84011 10.4309 4.85699 10.3788 4.89777 10.3785L5.21249 10.3761L5.31205 10.0775C5.32513 10.0388 5.37979 10.0388 5.39268 10.0775Z" fill="#F5F5F5"/>
<path d="M6.6051 1.15397L6.70466 1.45256L7.01938 1.455C7.06011 1.45533 7.07704 1.50731 7.04422 1.5315L6.79105 1.71848L6.88597 2.01858C6.89825 2.05744 6.85405 2.08955 6.82086 2.06587L6.56478 1.88283L6.3087 2.06587C6.27556 2.08959 6.23131 2.05744 6.2436 2.01858L6.33852 1.71848L6.08534 1.5315C6.05258 1.50731 6.06945 1.45528 6.11023 1.455L6.42495 1.45256L6.52452 1.15397C6.53755 1.11534 6.59221 1.11534 6.6051 1.15397Z" fill="#F5F5F5"/>
<path d="M6.60501 3.64473L6.70458 3.94333L7.01929 3.94577C7.06003 3.94609 7.07695 3.99808 7.04414 4.02231L6.79097 4.2093L6.88593 4.50935C6.89822 4.5482 6.85401 4.58031 6.82083 4.55664L6.56475 4.3736L6.30867 4.55664C6.27553 4.58036 6.23128 4.5482 6.24356 4.50935L6.33848 4.20925L6.08531 4.02227C6.05255 3.99808 6.06942 3.94605 6.1102 3.94572L6.42492 3.94328L6.52448 3.64469C6.53747 3.60606 6.59212 3.60606 6.60501 3.64473Z" fill="#F5F5F5"/>
<path d="M6.6051 6.4073L6.70466 6.70589L7.01938 6.70833C7.06011 6.70866 7.07704 6.76064 7.04422 6.78487L6.79105 6.97186L6.88597 7.27195C6.89825 7.31081 6.85405 7.34292 6.82086 7.31925L6.56478 7.13625L6.3087 7.31925C6.27556 7.34292 6.23131 7.31081 6.2436 7.27195L6.33852 6.97186L6.08534 6.78487C6.05258 6.76069 6.06945 6.70866 6.11023 6.70833L6.42495 6.70589L6.52452 6.4073C6.53755 6.36863 6.59221 6.36863 6.6051 6.4073Z" fill="#F5F5F5"/>
<path d="M6.6051 8.94539L6.70466 9.24398L7.01938 9.24641C7.06011 9.24674 7.07704 9.29873 7.04422 9.32296L6.79105 9.50994L6.88597 9.81004C6.89825 9.84889 6.85405 9.881 6.82086 9.85733L6.56478 9.67429L6.3087 9.85733C6.27556 9.881 6.23131 9.84889 6.2436 9.81004L6.33852 9.50994L6.08534 9.32296C6.05258 9.29877 6.06945 9.24674 6.11023 9.24641L6.42495 9.24398L6.52452 8.94539C6.53755 8.90671 6.59221 8.90671 6.6051 8.94539Z" fill="#F5F5F5"/>
<path d="M6.6051 11.255L6.70466 11.5535L7.01938 11.556C7.06011 11.5563 7.07704 11.6083 7.04422 11.6325L6.79105 11.8195L6.88597 12.1196C6.89825 12.1585 6.85405 12.1906 6.82086 12.1669L6.56478 11.9839L6.3087 12.1669C6.27556 12.1906 6.23131 12.1585 6.2436 12.1196L6.33852 11.8195L6.08534 11.6325C6.05258 11.6083 6.06945 11.5563 6.11023 11.556L6.42495 11.5535L6.52452 11.255C6.53755 11.2163 6.59221 11.2163 6.6051 11.255Z" fill="#F5F5F5"/>
<path d="M7.81745 2.33345L7.91701 2.63204L8.23173 2.63448C8.27247 2.63481 8.28939 2.68679 8.25658 2.71098L8.00336 2.89796L8.09828 3.19806C8.11056 3.23692 8.06631 3.26907 8.03317 3.24536L7.77709 3.06231L7.52102 3.24536C7.48787 3.26907 7.44363 3.23692 7.45591 3.19806L7.55083 2.89796L7.29766 2.71098C7.26489 2.68679 7.28177 2.63476 7.3225 2.63448L7.63722 2.63204L7.73678 2.33345C7.7499 2.29478 7.80456 2.29478 7.81745 2.33345Z" fill="#F5F5F5"/>
<path d="M7.81745 5.09602L7.91701 5.39461L8.23173 5.39705C8.27247 5.39738 8.28939 5.44936 8.25658 5.4736L8.00336 5.66058L8.09828 5.96068C8.11056 5.99954 8.06631 6.03169 8.03317 6.00798L7.77709 5.82493L7.52102 6.00798C7.48787 6.03169 7.44363 5.99954 7.45591 5.96068L7.55083 5.66058L7.29766 5.4736C7.26489 5.44941 7.28177 5.39738 7.3225 5.39705L7.63722 5.39461L7.73678 5.09602C7.7499 5.05735 7.80456 5.05735 7.81745 5.09602Z" fill="#F5F5F5"/>
<path d="M7.81745 7.7205L7.91701 8.01909L8.23173 8.02153C8.27247 8.02186 8.28939 8.07384 8.25658 8.09808L8.00336 8.28506L8.09828 8.58516C8.11056 8.62402 8.06631 8.65613 8.03317 8.63246L7.77709 8.44941L7.52102 8.63246C7.48787 8.65617 7.44363 8.62402 7.45591 8.58516L7.55083 8.28506L7.29766 8.09808C7.26489 8.07389 7.28177 8.02186 7.3225 8.02153L7.63722 8.01909L7.73678 7.7205C7.7499 7.68187 7.80456 7.68187 7.81745 7.7205Z" fill="#F5F5F5"/>
<path d="M7.81745 10.0775L7.91701 10.3761L8.23173 10.3785C8.27247 10.3788 8.28939 10.4308 8.25658 10.455L8.00336 10.642L8.09828 10.9421C8.11056 10.981 8.06631 11.0131 8.03317 10.9894L7.77709 10.8064L7.52102 10.9894C7.48787 11.0131 7.44363 10.981 7.45591 10.9421L7.55083 10.642L7.29766 10.455C7.26489 10.4309 7.28177 10.3788 7.3225 10.3785L7.63722 10.3761L7.73678 10.0775C7.7499 10.0388 7.80456 10.0388 7.81745 10.0775Z" fill="#F5F5F5"/>
<path d="M9.02975 1.15397L9.12931 1.45256L9.44403 1.455C9.48477 1.45533 9.50169 1.50731 9.46888 1.5315L9.21566 1.71848L9.31058 2.01858C9.32286 2.05744 9.27861 2.08955 9.24547 2.06587L8.98939 1.88283L8.73331 2.06587C8.70017 2.08959 8.65592 2.05744 8.6682 2.01858L8.76312 1.71848L8.5099 1.5315C8.47714 1.50731 8.49401 1.45528 8.5348 1.455L8.84951 1.45256L8.94908 1.15397C8.9622 1.11534 9.01686 1.11534 9.02975 1.15397Z" fill="#F5F5F5"/>
<path d="M9.02975 3.64473L9.12931 3.94332L9.44403 3.94576C9.48477 3.94609 9.50169 3.99807 9.46888 4.02231L9.21566 4.20929L9.31058 4.50938C9.32286 4.54824 9.27861 4.58035 9.24547 4.55668L8.98939 4.37363L8.73331 4.55668C8.70017 4.5804 8.65592 4.54824 8.6682 4.50938L8.76312 4.20929L8.5099 4.02231C8.47714 3.99812 8.49401 3.94609 8.5348 3.94576L8.84951 3.94332L8.94908 3.64473C8.9622 3.60605 9.01686 3.60605 9.02975 3.64473Z" fill="#F5F5F5"/>
<path d="M9.02975 6.4073L9.12931 6.70589L9.44403 6.70833C9.48477 6.70866 9.50169 6.76064 9.46888 6.78487L9.21566 6.97186L9.31058 7.27195C9.32286 7.31081 9.27861 7.34292 9.24547 7.31925L8.98939 7.13625L8.73331 7.31925C8.70017 7.34292 8.65592 7.31081 8.6682 7.27195L8.76312 6.97186L8.5099 6.78487C8.47714 6.76069 8.49401 6.70866 8.5348 6.70833L8.84951 6.70589L8.94908 6.4073C8.9622 6.36863 9.01686 6.36863 9.02975 6.4073Z" fill="#F5F5F5"/>
<path d="M9.02975 8.94539L9.12931 9.24398L9.44403 9.24641C9.48477 9.24674 9.50169 9.29873 9.46888 9.32296L9.21566 9.50994L9.31058 9.81004C9.32286 9.84889 9.27861 9.881 9.24547 9.85733L8.98939 9.67429L8.73331 9.85733C8.70017 9.881 8.65592 9.84889 8.6682 9.81004L8.76312 9.50994L8.5099 9.32296C8.47714 9.29877 8.49401 9.24674 8.5348 9.24641L8.84951 9.24398L8.94908 8.94539C8.9622 8.90671 9.01686 8.90671 9.02975 8.94539Z" fill="#F5F5F5"/>
<path d="M9.02975 11.255L9.12931 11.5535L9.44403 11.556C9.48477 11.5563 9.50169 11.6083 9.46888 11.6325L9.21566 11.8195L9.31058 12.1196C9.32286 12.1585 9.27861 12.1906 9.24547 12.1669L8.98939 11.9839L8.73331 12.1669C8.70017 12.1906 8.65592 12.1585 8.6682 12.1196L8.76312 11.8195L8.5099 11.6325C8.47714 11.6083 8.49401 11.5563 8.5348 11.556L8.84951 11.5535L8.94908 11.255C8.9622 11.2163 9.01686 11.2163 9.02975 11.255Z" fill="#F5F5F5"/>
<path d="M10.242 2.33345L10.3416 2.63204L10.6564 2.63448C10.6971 2.63481 10.714 2.68679 10.6812 2.71098L10.428 2.89796L10.5229 3.19806C10.5352 3.23692 10.4909 3.26907 10.4578 3.24536L10.2017 3.06231L9.94565 3.24536C9.91251 3.26907 9.86826 3.23692 9.88054 3.19806L9.97547 2.89796L9.72225 2.71098C9.68948 2.68679 9.70636 2.63476 9.74709 2.63448L10.0619 2.63204L10.1614 2.33345C10.1745 2.29478 10.2292 2.29478 10.242 2.33345Z" fill="#F5F5F5"/>
<path d="M10.242 5.09602L10.3416 5.39461L10.6564 5.39705C10.6971 5.39738 10.714 5.44936 10.6812 5.4736L10.428 5.66058L10.5229 5.96068C10.5352 5.99954 10.4909 6.03169 10.4578 6.00798L10.2017 5.82493L9.94565 6.00798C9.91251 6.03169 9.86826 5.99954 9.88054 5.96068L9.97547 5.66058L9.72225 5.4736C9.68948 5.44941 9.70636 5.39738 9.74709 5.39705L10.0619 5.39461L10.1614 5.09602C10.1745 5.05735 10.2292 5.05735 10.242 5.09602Z" fill="#F5F5F5"/>
<path d="M10.242 7.7205L10.3416 8.01909L10.6564 8.02153C10.6971 8.02186 10.714 8.07384 10.6812 8.09808L10.428 8.28506L10.5229 8.58516C10.5352 8.62402 10.4909 8.65613 10.4578 8.63246L10.2017 8.44941L9.94565 8.63246C9.91251 8.65617 9.86826 8.62402 9.88054 8.58516L9.97547 8.28506L9.72225 8.09808C9.68948 8.07389 9.70636 8.02186 9.74709 8.02153L10.0619 8.01909L10.1614 7.7205C10.1745 7.68187 10.2292 7.68187 10.242 7.7205Z" fill="#F5F5F5"/>
<path d="M10.242 10.0775L10.3416 10.3761L10.6564 10.3785C10.6971 10.3788 10.714 10.4308 10.6812 10.455L10.428 10.642L10.5229 10.9421C10.5352 10.981 10.4909 11.0131 10.4578 10.9894L10.2017 10.8064L9.94565 10.9894C9.91251 11.0131 9.86826 10.981 9.88054 10.9421L9.97547 10.642L9.72225 10.455C9.68948 10.4309 9.70636 10.3788 9.74709 10.3785L10.0619 10.3761L10.1614 10.0775C10.1745 10.0388 10.2292 10.0388 10.242 10.0775Z" fill="#F5F5F5"/>
<path d="M11.4543 1.15397L11.5539 1.45256L11.8686 1.455C11.9093 1.45533 11.9263 1.50731 11.8935 1.5315L11.6403 1.71848L11.7352 2.01858C11.7475 2.05744 11.7032 2.08955 11.6701 2.06587L11.414 1.88283L11.1579 2.06587C11.1248 2.08959 11.0805 2.05744 11.0928 2.01858L11.1877 1.71848L10.9345 1.5315C10.9018 1.50731 10.9186 1.45528 10.9594 1.455L11.2741 1.45256L11.3737 1.15397C11.3868 1.11534 11.4414 1.11534 11.4543 1.15397Z" fill="#F5F5F5"/>
<path d="M11.4543 3.64473L11.5539 3.94332L11.8686 3.94576C11.9093 3.94609 11.9263 3.99807 11.8935 4.02231L11.6403 4.20929L11.7352 4.50938C11.7475 4.54824 11.7032 4.58035 11.6701 4.55668L11.414 4.37363L11.1579 4.55668C11.1248 4.5804 11.0805 4.54824 11.0928 4.50938L11.1877 4.20929L10.9345 4.02231C10.9018 3.99812 10.9186 3.94609 10.9594 3.94576L11.2741 3.94332L11.3737 3.64473C11.3868 3.60605 11.4414 3.60605 11.4543 3.64473Z" fill="#F5F5F5"/>
<path d="M11.4543 6.4073L11.5539 6.70589L11.8686 6.70833C11.9093 6.70866 11.9263 6.76064 11.8935 6.78487L11.6403 6.97186L11.7352 7.27195C11.7475 7.31081 11.7032 7.34292 11.6701 7.31925L11.414 7.13625L11.1579 7.31925C11.1248 7.34292 11.0805 7.31081 11.0928 7.27195L11.1877 6.97186L10.9345 6.78487C10.9018 6.76069 10.9186 6.70866 10.9594 6.70833L11.2741 6.70589L11.3737 6.4073C11.3868 6.36863 11.4414 6.36863 11.4543 6.4073Z" fill="#F5F5F5"/>
<path d="M11.4543 8.94539L11.5539 9.24398L11.8686 9.24641C11.9093 9.24674 11.9263 9.29873 11.8935 9.32296L11.6403 9.50994L11.7352 9.81004C11.7475 9.84889 11.7032 9.881 11.6701 9.85733L11.414 9.67429L11.1579 9.85733C11.1248 9.881 11.0805 9.84889 11.0928 9.81004L11.1877 9.50994L10.9345 9.32296C10.9018 9.29877 10.9186 9.24674 10.9594 9.24641L11.2741 9.24398L11.3737 8.94539C11.3868 8.90671 11.4414 8.90671 11.4543 8.94539Z" fill="#F5F5F5"/>
<path d="M11.4543 11.255L11.5539 11.5535L11.8686 11.556C11.9093 11.5563 11.9263 11.6083 11.8935 11.6325L11.6403 11.8195L11.7352 12.1196C11.7475 12.1585 11.7032 12.1906 11.6701 12.1669L11.414 11.9839L11.1579 12.1669C11.1248 12.1906 11.0805 12.1585 11.0928 12.1196L11.1877 11.8195L10.9345 11.6325C10.9018 11.6083 10.9186 11.5563 10.9594 11.556L11.2741 11.5535L11.3737 11.255C11.3868 11.2163 11.4414 11.2163 11.4543 11.255Z" fill="#F5F5F5"/>
</svg>
