<svg width="24" height="25" viewBox="0 0 24 25" fill="none" xmlns="http://www.w3.org/2000/svg">
<path d="M12.3803 7.0441H10.2488V3.36228H10.8301C11.1512 3.36228 11.4115 3.10197 11.4115 2.78093C11.4115 2.45989 11.1512 2.19958 10.8301 2.19958H6.17936C5.85832 2.19958 5.59801 2.45989 5.59801 2.78093C5.59801 3.10197 5.85832 3.36228 6.17936 3.36228H6.7607V7.0441H4.6292C4.30816 7.0441 4.04785 7.3044 4.04785 7.62545C4.04785 7.94649 4.30816 8.20679 4.6292 8.20679H5.59801V14.2235C5.59801 14.827 5.90613 15.3595 6.37324 15.6727V16.9267C6.37324 17.6747 6.98165 18.2833 7.72967 18.2833H7.9234V21.7712C7.9234 22.0923 8.18371 22.3526 8.50475 22.3526C8.82579 22.3526 9.0861 22.0923 9.0861 21.7712V18.2833H9.27983C10.0278 18.2833 10.6363 17.6747 10.6363 16.9267V15.6727C11.1034 15.3595 11.4115 14.827 11.4115 14.2235V8.20679H12.3803C12.7013 8.20679 12.9616 7.94649 12.9616 7.62545C12.9616 7.3044 12.7013 7.0441 12.3803 7.0441ZM7.9234 3.36228H9.0861V7.0441H7.9234V3.36228Z" fill="#50504F"/>
<path d="M18.3875 14.8062V14.3883C18.8293 14.2985 19.1626 13.907 19.1626 13.4388V11.8933C19.1626 11.3591 18.7281 10.9243 18.1936 10.9243H15.0933C14.5589 10.9243 14.1244 11.3591 14.1244 11.8933V13.4388C14.1244 13.907 14.4577 14.2985 14.8994 14.3883V14.8062C14.0286 14.9026 13.3493 15.6432 13.3493 16.5393V21.7713C13.3493 22.0922 13.6097 22.3526 13.9306 22.3526H19.3563C19.6772 22.3526 19.9377 22.0922 19.9377 21.7713V16.5393C19.9377 15.6432 19.2584 14.9026 18.3875 14.8062Z" fill="#50504F"/>
</svg>
