<svg width="35" height="41" viewBox="0 0 35 41" fill="none" xmlns="http://www.w3.org/2000/svg">
<path d="M20.131 0.143066C20.6261 0.143066 21.0419 0.563066 21.0419 1.06307V7.50307C21.0419 11.1631 24.0122 14.1631 27.6558 14.1831C29.1409 14.1831 30.3291 14.2031 31.24 14.2031C31.8538 14.2031 32.8637 14.1831 33.7152 14.1831C34.2103 14.1831 34.6261 14.5831 34.6261 15.0831V31.1631C34.6261 36.1231 30.6261 40.1431 25.7152 40.1431H9.97263C4.80432 40.1431 0.626099 35.9231 0.626099 30.7231V9.16307C0.626099 4.20307 4.6063 0.143066 9.55679 0.143066H20.131ZM16.9033 13.6231C16.7053 13.6231 16.5073 13.6631 16.3291 13.7431C16.1509 13.8231 15.9924 13.9231 15.8538 14.0631L10.1905 19.8231C9.6162 20.4031 9.6162 21.3431 10.1905 21.9231C10.7647 22.5031 11.6954 22.5031 12.2697 21.9231L15.4182 18.7231V28.3831C15.4182 29.2031 16.0716 29.8631 16.9033 29.8631C17.7152 29.8631 18.3687 29.2031 18.3687 28.3831V18.7231L21.5172 21.9231C22.0914 22.5031 23.0221 22.5031 23.5964 21.9231C24.1905 21.3431 24.1905 20.4031 23.6162 19.8231L17.933 14.0631C17.7944 13.9231 17.636 13.8231 17.4578 13.7431C17.2796 13.6631 17.1013 13.6231 16.9033 13.6231ZM23.9166 1.95507C23.9166 1.09307 24.9503 0.665066 25.5423 1.28707C27.6849 3.53507 31.4255 7.46507 33.5166 9.66107C34.0928 10.2671 33.6691 11.2731 32.8354 11.2751C31.2077 11.2811 29.2908 11.2751 27.9107 11.2611C25.7206 11.2611 23.9166 9.43907 23.9166 7.22707V1.95507Z" fill="black"/>
</svg>
