<svg width="25" height="31" viewBox="0 0 25 31" fill="none" xmlns="http://www.w3.org/2000/svg">
<path d="M13.0704 7.65196H9.87319V2.12924H10.7452C11.2268 2.12924 11.6172 1.73878 11.6172 1.25721C11.6172 0.775654 11.2268 0.385193 10.7452 0.385193H3.76904C3.28747 0.385193 2.89701 0.775654 2.89701 1.25721C2.89701 1.73878 3.28747 2.12924 3.76904 2.12924H4.64106V7.65196H1.4438C0.962238 7.65196 0.571777 8.04242 0.571777 8.52398C0.571777 9.00554 0.962238 9.39601 1.4438 9.39601H2.89701V18.4211C2.89701 19.3264 3.3592 20.125 4.05986 20.5948V22.4759C4.05986 23.5979 4.97248 24.5107 6.0945 24.5107H6.3851V29.7426C6.3851 30.2242 6.77556 30.6147 7.25712 30.6147C7.73868 30.6147 8.12914 30.2242 8.12914 29.7426V24.5107H8.41974C9.54177 24.5107 10.4544 23.5979 10.4544 22.4759V20.5948C11.155 20.125 11.6172 19.3264 11.6172 18.4211V9.39601H13.0704C13.552 9.39601 13.9425 9.00554 13.9425 8.52398C13.9425 8.04242 13.552 7.65196 13.0704 7.65196ZM6.3851 2.12924H8.12914V7.65196H6.3851V2.12924Z" fill="#E6E6E6"/>
<path d="M22.0813 19.2951V18.6682C22.7439 18.5335 23.2439 17.9463 23.2439 17.2441V14.9257C23.2439 14.1245 22.5922 13.4723 21.7905 13.4723H17.14C16.3383 13.4723 15.6866 14.1245 15.6866 14.9257V17.2441C15.6866 17.9463 16.1866 18.5335 16.8492 18.6682V19.2951C15.5429 19.4397 14.5239 20.5506 14.5239 21.8948V29.7427C14.5239 30.224 14.9146 30.6147 15.396 30.6147H23.5345C24.0159 30.6147 24.4065 30.224 24.4065 29.7427V21.8948C24.4065 20.5506 23.3876 19.4397 22.0813 19.2951Z" fill="#E6E6E6"/>
</svg>
