<svg width="41" height="41" viewBox="0 0 41 41" fill="none" xmlns="http://www.w3.org/2000/svg">
<path d="M29.7621 0.14386C36.5641 0.14386 40.4041 4.00186 40.4241 10.8039V29.4839C40.4241 36.2839 36.5641 40.1439 29.7621 40.1439H11.0841C4.28207 40.1439 0.424072 36.2839 0.424072 29.4839V10.8039C0.424072 4.00186 4.28207 0.14386 11.0841 0.14386H29.7621ZM21.4241 8.40386C20.8621 8.06386 20.1821 8.06386 19.6441 8.40386C19.1021 8.74186 18.8041 9.36386 18.8621 9.98386V30.3639C18.9641 31.2239 19.6821 31.8639 20.5221 31.8639C21.3841 31.8639 22.1021 31.2239 22.1821 30.3639V9.98386C22.2621 9.36386 21.9641 8.74186 21.4241 8.40386ZM12.0841 14.9639C11.5441 14.6239 10.8621 14.6239 10.3241 14.9639C9.78207 15.3039 9.48407 15.9219 9.54407 16.5439V30.3639C9.62207 31.2239 10.3421 31.8639 11.2021 31.8639C12.0641 31.8639 12.7821 31.2239 12.8621 30.3639V16.5439C12.9241 15.9219 12.6221 15.3039 12.0841 14.9639ZM30.6021 22.2239C30.0641 21.8839 29.3841 21.8839 28.8241 22.2239C28.2821 22.5639 27.9841 23.1619 28.0641 23.8039V30.3639C28.1441 31.2239 28.8621 31.8639 29.7241 31.8639C30.5641 31.8639 31.2821 31.2239 31.3841 30.3639V23.8039C31.4421 23.1619 31.1441 22.5639 30.6021 22.2239Z" fill="black"/>
</svg>
