<svg width="37" height="37" viewBox="0 0 37 37" fill="none" xmlns="http://www.w3.org/2000/svg">
<path d="M25.4902 3.50018C30.5902 3.50018 33.5002 6.38018 33.5002 11.4952V25.5052C33.5002 30.5902 30.6052 33.5002 25.5052 33.5002H11.4952C6.38024 33.5002 3.50024 30.5902 3.50024 25.5052V11.4952C3.50024 6.38018 6.38024 3.50018 11.4952 3.50018H25.4902ZM18.4852 11.7652C17.7952 11.7652 17.2402 12.3202 17.2402 13.0102V17.2402H12.9952C12.6652 17.2402 12.3502 17.3752 12.1102 17.6002C11.8852 17.8402 11.7502 18.1537 11.7502 18.4852C11.7502 19.1752 12.3052 19.7302 12.9952 19.7452H17.2402V23.9902C17.2402 24.6802 17.7952 25.2352 18.4852 25.2352C19.1752 25.2352 19.7302 24.6802 19.7302 23.9902V19.7452H23.9902C24.6802 19.7302 25.2352 19.1752 25.2352 18.4852C25.2352 17.7952 24.6802 17.2402 23.9902 17.2402H19.7302V13.0102C19.7302 12.3202 19.1752 11.7652 18.4852 11.7652Z" fill="#E5E5E5"/>
</svg>
