<svg width="27" height="31" viewBox="0 0 27 31" fill="none" xmlns="http://www.w3.org/2000/svg">
<path d="M15.3787 0.5C15.7649 0.5 16.0619 0.815 16.0619 1.19V6.02C16.0619 8.765 18.3045 11.015 21.0223 11.03C22.151 11.03 23.0421 11.045 23.7252 11.045L23.9783 11.0439C24.4348 11.0404 25.0495 11.03 25.5817 11.03C25.953 11.03 26.25 11.33 26.25 11.705V23.765C26.25 27.485 23.2649 30.5 19.5817 30.5H7.7599C3.89851 30.5 0.75 27.335 0.75 23.435V7.265C0.75 3.545 3.75 0.5 7.44802 0.5H15.3787ZM16.9678 19.85H8.88861C8.2797 19.85 7.77475 20.345 7.77475 20.96C7.77475 21.575 8.2797 22.085 8.88861 22.085H16.9678C17.5767 22.085 18.0817 21.575 18.0817 20.96C18.0817 20.345 17.5767 19.85 16.9678 19.85ZM13.9084 12.35H8.88861C8.2797 12.35 7.77475 12.86 7.77475 13.475C7.77475 14.09 8.2797 14.585 8.88861 14.585H13.9084C14.5173 14.585 15.0223 14.09 15.0223 13.475C15.0223 12.86 14.5173 12.35 13.9084 12.35ZM18.226 1.859C18.226 1.2125 19.0028 0.8915 19.4468 1.358C21.0523 3.044 23.8577 5.9915 25.426 7.6385C25.8597 8.093 25.5419 8.8475 24.9166 8.849C23.6958 8.8535 22.2567 8.849 21.2216 8.8385C19.579 8.8385 18.226 7.472 18.226 5.813V1.859Z" fill="#E5E5E5"/>
</svg>
