<svg width="24" height="25" viewBox="0 0 24 25" fill="none" xmlns="http://www.w3.org/2000/svg">
<g opacity="0.75">
<path d="M11.4927 2.27612C13.9753 2.27612 16 4.26612 16 6.71612V11.5061H9.89535C9.45785 11.5061 9.11192 11.8461 9.11192 12.2761C9.11192 12.6961 9.45785 13.0461 9.89535 13.0461H16V17.8261C16 20.2761 13.9753 22.2761 11.4724 22.2761H6.51744C4.02471 22.2761 2 20.2861 2 17.8361V6.72612C2 4.26612 4.03488 2.27612 6.52762 2.27612H11.4927ZM18.5402 8.82632C18.8402 8.51632 19.3302 8.51632 19.6302 8.81632L22.5502 11.7263C22.7002 11.8763 22.7802 12.0663 22.7802 12.2763C22.7802 12.4763 22.7002 12.6763 22.5502 12.8163L19.6302 15.7263C19.4802 15.8763 19.2802 15.9563 19.0902 15.9563C18.8902 15.9563 18.6902 15.8763 18.5402 15.7263C18.2402 15.4263 18.2402 14.9363 18.5402 14.6363L20.1402 13.0463L16 13.0461V11.5061L20.1402 11.5063L18.5402 9.91632C18.2402 9.61632 18.2402 9.12632 18.5402 8.82632Z" fill="black"/>
</g>
</svg>
