<svg width="24" height="25" viewBox="0 0 24 25" fill="none" xmlns="http://www.w3.org/2000/svg">
<g opacity="0.75">
<path d="M12.7171 2.27612C13.4734 2.27612 14.1581 2.69612 14.5362 3.31612C14.7202 3.61612 14.8428 3.98612 14.8121 4.37612C14.7917 4.67612 14.8837 4.97612 15.0472 5.25612C15.5684 6.10612 16.7232 6.42612 17.6225 5.94612C18.6343 5.36612 19.9117 5.71612 20.4942 6.70612L21.1789 7.88612C21.7717 8.87612 21.4446 10.1461 20.4227 10.7161C19.554 11.2261 19.2474 12.3561 19.7686 13.2161C19.9321 13.4861 20.1161 13.7161 20.4022 13.8561C20.7599 14.0461 21.0359 14.3461 21.23 14.6461C21.6082 15.2661 21.5775 16.0261 21.2096 16.6961L20.4942 17.8961C20.1161 18.5361 19.4109 18.9361 18.6854 18.9361C18.3277 18.9361 17.9291 18.8361 17.6021 18.6361C17.3364 18.4661 17.0298 18.4061 16.7028 18.4061C15.691 18.4061 14.8428 19.2361 14.8121 20.2261C14.8121 21.3761 13.8719 22.2761 12.6967 22.2761H11.3068C10.1214 22.2761 9.18115 21.3761 9.18115 20.2261C9.16072 19.2361 8.31249 18.4061 7.30075 18.4061C6.96351 18.4061 6.65692 18.4661 6.40143 18.6361C6.0744 18.8361 5.66562 18.9361 5.31816 18.9361C4.58235 18.9361 3.8772 18.5361 3.49907 17.8961L2.79392 16.6961C2.4158 16.0461 2.39536 15.2661 2.77348 14.6461C2.93699 14.3461 3.24358 14.0461 3.59105 13.8561C3.8772 13.7161 4.06115 13.4861 4.23488 13.2161C4.74586 12.3561 4.43927 11.2261 3.57061 10.7161C2.55887 10.1461 2.23184 8.87612 2.81436 7.88612L3.49907 6.70612C4.09181 5.71612 5.35903 5.36612 6.38099 5.94612C7.27009 6.42612 8.42491 6.10612 8.9461 5.25612C9.10962 4.97612 9.20159 4.67612 9.18115 4.37612C9.16072 3.98612 9.27313 3.61612 9.4673 3.31612C9.84543 2.69612 10.5301 2.29612 11.2762 2.27612H12.7171ZM12.012 9.45612C10.4075 9.45612 9.10962 10.7161 9.10962 12.2861C9.10962 13.8561 10.4075 15.1061 12.012 15.1061C13.6164 15.1061 14.8837 13.8561 14.8837 12.2861C14.8837 10.7161 13.6164 9.45612 12.012 9.45612Z" fill="black"/>
</g>
</svg>
