<svg width="24" height="25" viewBox="0 0 24 25" fill="none" xmlns="http://www.w3.org/2000/svg">
<g opacity="0.75">
<path fill-rule="evenodd" clip-rule="evenodd" d="M9 2.27612C6.23858 2.27612 4 4.5147 4 7.27612V17.2761C4 20.0375 6.23858 22.2761 9 22.2761H15C17.7614 22.2761 20 20.0375 20 17.2761V7.27612C20 4.5147 17.7614 2.27612 15 2.27612H9ZM9.56866 19.1007C9.29346 19.1007 9.07037 19.3238 9.07037 19.599C9.07037 19.8742 9.29346 20.0973 9.56866 20.0973H14.4313C14.7065 20.0973 14.9296 19.8742 14.9296 19.599C14.9296 19.3238 14.7065 19.1007 14.4313 19.1007H9.56866Z" fill="#272727"/>
</g>
</svg>
