<svg width="24" height="25" viewBox="0 0 24 25" fill="none" xmlns="http://www.w3.org/2000/svg">
<g opacity="0.75">
<path d="M12.0001 2.27539C17.5301 2.27539 22.0001 6.75639 22.0001 12.2754C22.0001 17.7964 17.5301 22.2754 12.0001 22.2754C6.48009 22.2754 2.00009 17.7964 2.00009 12.2754C2.00009 6.75639 6.48009 2.27539 12.0001 2.27539ZM12.0001 15.2064C11.5201 15.2064 11.1301 15.5964 11.1301 16.0764C11.1301 16.5564 11.5201 16.9564 12.0101 16.9564C12.4901 16.9564 12.8801 16.5564 12.8801 16.0764C12.8801 15.5964 12.4901 15.2064 12.0001 15.2064ZM12.0001 7.60539C11.5201 7.60539 11.1201 8.00639 11.1201 8.48539V12.9054C11.1201 13.3864 11.5201 13.7754 12.0001 13.7754C12.4801 13.7754 12.8701 13.3864 12.8701 12.9054V8.48539C12.8701 8.00639 12.4801 7.60539 12.0001 7.60539Z" fill="black"/>
</g>
</svg>
