<svg width="24" height="25" viewBox="0 0 24 25" fill="none" xmlns="http://www.w3.org/2000/svg">
<path d="M12.3803 7.04398H10.2488V3.36216H10.8301C11.1512 3.36216 11.4115 3.10185 11.4115 2.78081C11.4115 2.45977 11.1512 2.19946 10.8301 2.19946H6.17935C5.85831 2.19946 5.598 2.45977 5.598 2.78081C5.598 3.10185 5.85831 3.36216 6.17935 3.36216H6.7607V7.04398H4.62919C4.30815 7.04398 4.04784 7.30428 4.04784 7.62532C4.04784 7.94636 4.30815 8.20667 4.62919 8.20667H5.598V14.2234C5.598 14.8269 5.90613 15.3594 6.37323 15.6726V16.9266C6.37323 17.6746 6.98164 18.2832 7.72966 18.2832H7.92339V21.7711C7.92339 22.0921 8.1837 22.3524 8.50474 22.3524C8.82578 22.3524 9.08609 22.0921 9.08609 21.7711V18.2832H9.27982C10.0278 18.2832 10.6362 17.6746 10.6362 16.9266V15.6726C11.1034 15.3594 11.4115 14.8269 11.4115 14.2234V8.20667H12.3803C12.7013 8.20667 12.9616 7.94636 12.9616 7.62532C12.9616 7.30428 12.7013 7.04398 12.3803 7.04398ZM7.92339 3.36216H9.08609V7.04398H7.92339V3.36216Z" fill="#50504F"/>
<path d="M18.3875 14.8062V14.3883C18.8293 14.2985 19.1626 13.907 19.1626 13.4388V11.8933C19.1626 11.3591 18.7281 10.9243 18.1936 10.9243H15.0933C14.5589 10.9243 14.1244 11.3591 14.1244 11.8933V13.4388C14.1244 13.907 14.4577 14.2985 14.8994 14.3883V14.8062C14.0286 14.9026 13.3493 15.6432 13.3493 16.5393V21.7713C13.3493 22.0922 13.6097 22.3526 13.9306 22.3526H19.3563C19.6772 22.3526 19.9377 22.0922 19.9377 21.7713V16.5393C19.9377 15.6432 19.2584 14.9026 18.3875 14.8062Z" fill="#50504F"/>
</svg>
