<svg width="223" height="236" viewBox="0 0 223 236" fill="none" xmlns="http://www.w3.org/2000/svg">
<path d="M182.05 119.062H13.5C6.3203 119.062 0.5 124.882 0.5 132.062V220C0.5 228.837 7.66344 236 16.5 236H170.05C176.678 236 182.05 230.627 182.05 224V119.062Z" fill="#FFC727"/>
<path d="M124.838 106.95H173.05C178.021 106.95 182.05 110.979 182.05 115.95V119.062H121.549L124.838 106.95Z" fill="#FFC727"/>
<path d="M28.962 42.1675C28.5217 40.2771 28.5217 38.3113 28.962 36.4209C29.1966 37.3603 29.3065 38.3263 29.289 39.2942C29.3032 40.2619 29.1934 41.2275 28.962 42.1675Z" fill="#263238"/>
<path d="M34.8349 43.8549C35.1057 42.9255 35.4948 42.0343 35.9925 41.2032C36.4601 40.3555 37.0385 39.5733 37.7125 38.8772C37.4405 39.8062 37.0515 40.6972 36.555 41.529C36.0798 42.3718 35.5021 43.153 34.8349 43.8549Z" fill="#263238"/>
<path d="M39.086 48.2138C39.7887 47.5452 40.5732 46.9673 41.4207 46.4937C42.2533 45.9928 43.1481 45.6029 44.0825 45.334C43.381 46.0041 42.5964 46.5821 41.7477 47.054C40.9123 47.5494 40.0182 47.9389 39.086 48.2138Z" fill="#263238"/>
<path d="M40.5444 54.1492C41.4885 53.922 42.4573 53.8126 43.4285 53.8234C44.3996 53.8071 45.3688 53.9144 46.3126 54.1426C45.3694 54.3751 44.4002 54.4868 43.4285 54.4749C42.4573 54.4858 41.4885 54.3763 40.5444 54.1492Z" fill="#263238"/>
<path d="M38.857 60C40.7178 60.5689 42.4258 61.5489 43.8536 62.8668C42.9209 62.5992 42.0264 62.2138 41.1918 61.7201C40.3421 61.2498 39.5573 60.6716 38.857 60Z" fill="#263238"/>
<path d="M34.4491 64.2285C35.1216 64.9267 35.7038 65.7059 36.1822 66.548C36.68 67.3791 37.069 68.2703 37.3398 69.1998C36.6656 68.5021 36.0853 67.7203 35.6132 66.8738C35.116 66.0438 34.725 65.1551 34.4491 64.2285Z" fill="#263238"/>
<path d="M28.5173 65.6946C28.9576 67.585 28.9576 69.5507 28.5173 71.4412C28.2828 70.5017 28.1728 69.5357 28.1903 68.5679C28.1761 67.6001 28.286 66.6346 28.5173 65.6946Z" fill="#263238"/>
<path d="M22.6444 64.0071C22.3736 64.9366 21.9846 65.8277 21.4868 66.6588C21.0193 67.5066 20.4409 68.2887 19.7668 68.9848C20.3379 67.131 21.3215 65.4295 22.6444 64.0071Z" fill="#263238"/>
<path d="M18.4065 59.6221C17.7037 60.2907 16.9193 60.8686 16.0717 61.3421C15.2363 61.8374 14.3421 62.227 13.4099 62.5019C14.1113 61.8297 14.8959 61.2495 15.7447 60.7753C16.579 60.2794 17.4735 59.8918 18.4065 59.6221Z" fill="#263238"/>
<path d="M16.935 53.7127C15.9909 53.9398 15.0221 54.0493 14.0509 54.0384C13.0798 54.0547 12.1106 53.9474 11.1667 53.7192C12.11 53.4867 13.0792 53.375 14.0509 53.3869C15.0222 53.3732 15.9914 53.4826 16.935 53.7127Z" fill="#263238"/>
<path d="M18.6223 47.8553C17.6896 47.5877 16.7951 47.2023 15.9605 46.7086C15.113 46.235 14.3286 45.6571 13.6258 44.9885C14.5587 45.2583 15.4533 45.6458 16.2875 46.1417C17.1356 46.6119 17.9202 47.1877 18.6223 47.8553Z" fill="#263238"/>
<path d="M23.0237 43.6529C22.3518 42.9462 21.7717 42.1582 21.2972 41.3074C20.7926 40.4795 20.397 39.5905 20.12 38.6621C20.7925 39.3587 21.3727 40.1382 21.8465 40.9816C22.3526 41.8179 22.7483 42.7157 23.0237 43.6529Z" fill="#263238"/>
<path d="M161.271 62.0264H51.1915V213.027H169.271V70.0264C169.271 65.6081 165.689 62.0264 161.271 62.0264Z" fill="#383838"/>
<path d="M169.271 213.053L51.1915 213.255H50.9887V213.053L50.8579 62.0263V61.707H51.1784L169.258 61.7787H169.506V62.0263L169.271 213.053ZM169.271 213.053L169.022 62.0263L169.271 62.2674L51.1915 62.3455L51.5119 62.0263L51.4007 213.053L51.1915 212.844L169.271 213.053Z" fill="#DBDBDB"/>
<path d="M64.108 94.297L110.235 94.1797L156.355 94.297L110.235 94.4143L64.108 94.297Z" fill="#C7C7C7"/>
<path d="M64.108 98.0433L110.235 97.926L156.355 98.0433L110.235 98.1606L64.108 98.0433Z" fill="#C7C7C7"/>
<path d="M64.108 101.79L110.235 101.672L156.355 101.79L110.235 101.907L64.108 101.79Z" fill="#C7C7C7"/>
<path d="M64.108 105.536L110.235 105.425L156.355 105.536L110.235 105.653L64.108 105.536Z" fill="#C7C7C7"/>
<path d="M64.108 109.289L110.235 109.172L156.355 109.289L110.235 109.4L64.108 109.289Z" fill="#C7C7C7"/>
<path d="M64.108 113.035L110.235 112.918L156.355 113.035L110.235 113.146L64.108 113.035Z" fill="#C7C7C7"/>
<path d="M64.108 116.782L110.235 116.664L156.355 116.782L110.235 116.899L64.108 116.782Z" fill="#C7C7C7"/>
<path d="M64.108 120.528L110.235 120.411L156.355 120.528L110.235 120.645L64.108 120.528Z" fill="#C7C7C7"/>
<path d="M64.108 124.274L110.235 124.157L156.355 124.274L110.235 124.392L64.108 124.274Z" fill="#C7C7C7"/>
<path d="M64.108 128.021L110.235 127.903L156.355 128.021L110.235 128.138L64.108 128.021Z" fill="#C7C7C7"/>
<path d="M64.108 131.774L110.235 131.656L156.355 131.774L110.235 131.884L64.108 131.774Z" fill="#C7C7C7"/>
<path d="M64.108 135.52L110.235 135.403L156.355 135.52L110.235 135.637L64.108 135.52Z" fill="#C7C7C7"/>
<path d="M64.108 139.266L110.235 139.149L156.355 139.266L110.235 139.383L64.108 139.266Z" fill="#C7C7C7"/>
<path d="M64.108 143.013L110.235 142.895L156.355 143.013L110.235 143.13L64.108 143.013Z" fill="#C7C7C7"/>
<path d="M64.108 146.759L110.235 146.642L156.355 146.759L110.235 146.876L64.108 146.759Z" fill="#C7C7C7"/>
<path d="M80.8634 135.403H73.8656V151.131H80.8634V135.403Z" fill="#FFC727"/>
<path d="M93.8388 127.011H86.841V151.124H93.8388V127.011Z" fill="#FFC727"/>
<path d="M106.814 117.622H99.8163V151.131H106.814V117.622Z" fill="#FFC727"/>
<path d="M119.796 113.589H112.798V151.131H119.796V113.589Z" fill="#FFC727"/>
<path d="M132.771 106.403H125.774V151.131H132.771V106.403Z" fill="#FFC727"/>
<path d="M145.747 99.2942H138.749V151.124H145.747V99.2942Z" fill="#FFC727"/>
<path d="M66.6128 91.6648L66.7959 106.533L66.9201 121.394C67.003 131.311 67.0444 141.223 67.0444 151.131L66.6128 150.694H89.0515L111.484 150.746L133.922 150.883L156.355 151.144L133.922 151.398L111.484 151.541L89.0515 151.593H66.6128H66.1811V151.157C66.1811 141.245 66.2226 131.333 66.3054 121.421L66.4296 106.559L66.6128 91.6648Z" fill="#C7C7C7"/>
<path d="M80.8634 154.271H73.8656V154.903H80.8634V154.271Z" fill="#C7C7C7"/>
<path d="M93.8388 154.271H86.841V154.903H93.8388V154.271Z" fill="#C7C7C7"/>
<path d="M106.814 154.271H99.8163V154.903H106.814V154.271Z" fill="#C7C7C7"/>
<path d="M119.796 154.271H112.798V154.903H119.796V154.271Z" fill="#C7C7C7"/>
<path d="M132.771 154.271H125.774V154.903H132.771V154.271Z" fill="#C7C7C7"/>
<path d="M145.747 154.271H138.749V154.903H145.747V154.271Z" fill="#C7C7C7"/>
<path d="M74.6504 137.383C78.068 137.332 81.4794 137.076 84.8659 136.614C88.25 136.184 91.6095 135.579 94.9309 134.803C101.579 133.312 108.028 131.049 114.145 128.06C120.282 125.118 125.943 121.279 130.94 116.671L131.888 115.817L132.784 114.912L134.57 113.094C135.669 111.791 136.852 110.572 137.84 109.185C139.955 106.505 141.87 103.674 143.569 100.715H143.628C140.55 106.879 136.446 112.479 131.489 117.277C129.015 119.672 126.339 121.852 123.491 123.792C120.66 125.75 117.684 127.492 114.59 129.004C108.388 131.969 101.842 134.157 95.101 135.52C88.3862 136.971 81.5181 137.597 74.6504 137.383Z" fill="#263238"/>
<path d="M145.57 105.601L144.602 105.842L143.412 101.086L138.736 102.617L138.428 101.672L144.118 99.8091L145.57 105.601Z" fill="#263238"/>
<path d="M62.1329 178.385H158.323V174.508H62.1329V178.385Z" fill="#DBDBDB"/>
<path d="M62.1394 188.171H116.291V184.294H62.1394V188.171Z" fill="#DBDBDB"/>
<path d="M83.1589 82.5823H137.31V78.7056H83.1589V82.5823Z" fill="#DBDBDB"/>
<path d="M146.813 204.948L28.7397 204.889L28.8145 60.8882C28.8165 57.0224 31.9519 53.8901 35.8176 53.8918L116.487 53.9278L146.878 82.7192L146.813 204.948Z" fill="#575757"/>
<path d="M116.487 53.9277L146.878 82.7192L123.474 82.7092C119.608 82.7075 116.475 79.572 116.477 75.706L116.487 53.9277Z" fill="#282828"/>
<path d="M42.2211 83.1558H103.993C105.063 83.1558 105.931 82.2879 105.931 81.2174C105.931 80.1469 105.063 79.2791 103.993 79.2791H42.2211C41.1506 79.2791 40.2828 80.1469 40.2828 81.2174C40.2828 82.2879 41.1506 83.1558 42.2211 83.1558Z" fill="#353535"/>
<path d="M42.2548 92.8943L104.027 92.9265C105.097 92.927 105.965 92.0597 105.966 90.9892C105.966 89.9187 105.099 89.0504 104.029 89.0498L42.2569 89.0176C41.1863 89.017 40.3181 89.8844 40.3175 90.9549C40.3169 92.0254 41.1843 92.8937 42.2548 92.8943Z" fill="#353535"/>
<path d="M42.2534 102.68L104.025 102.713C105.096 102.713 105.964 101.846 105.965 100.775C105.965 99.7048 105.098 98.8365 104.027 98.836L42.2555 98.8037C41.1849 98.8032 40.3167 99.6706 40.3161 100.741C40.3156 101.812 41.1829 102.68 42.2534 102.68Z" fill="#353535"/>
<path d="M42.2375 112.256L134.551 112.304C135.622 112.305 136.49 111.438 136.49 110.367C136.491 109.297 135.624 108.428 134.553 108.428L42.2396 108.38C41.1691 108.379 40.3008 109.246 40.3002 110.317C40.2997 111.387 41.167 112.256 42.2375 112.256Z" fill="#353535"/>
<path d="M40.2899 141.821L136.48 141.871L136.482 137.994L40.2919 137.944L40.2899 141.821Z" fill="white"/>
<path d="M40.282 151.614L136.472 151.664L136.474 147.787L40.284 147.737L40.282 151.614Z" fill="white"/>
<path d="M40.2806 161.4L136.471 161.45L136.473 157.573L40.2826 157.523L40.2806 161.4Z" fill="white"/>
<path d="M40.2792 171.186L136.469 171.236L136.471 167.359L40.2812 167.309L40.2792 171.186Z" fill="white"/>
<path d="M40.2712 180.978L136.461 181.029L136.463 177.152L40.2733 177.102L40.2712 180.978Z" fill="white"/>
<path d="M40.2633 190.765L136.453 190.815L136.455 186.938L40.2653 186.888L40.2633 190.765Z" fill="white"/>
<path d="M2.48464 222.612C1.65418 229.741 7.22644 236 14.4041 236H175.353C179.413 236 182.83 232.959 183.299 228.926L194.967 128.763H28.5512C19.9233 128.763 12.6636 135.227 11.6654 143.796L2.48464 222.612Z" fill="#58AECC"/>
<path d="M135.982 125.082C137.834 120.588 142.216 117.655 147.077 117.655H186.151C191.532 117.655 195.711 122.346 195.091 127.691L194.967 128.763H134.465L135.982 125.082Z" fill="#58AECC"/>
<path d="M169.363 84.7716C167.272 82.924 165.821 80.4659 165.216 77.748C164.514 74.433 165.098 70.976 166.851 68.0727C167.7 66.6255 168.839 65.3679 170.197 64.3782C171.555 63.3884 173.103 62.6877 174.745 62.3196L192.632 58.4104L193.142 60.7234L175.255 64.6326C173.928 64.9322 172.678 65.5011 171.582 66.3038C170.486 67.1064 169.568 68.1256 168.885 69.2976C167.447 71.6809 166.965 74.5179 167.538 77.2398C168.781 82.8952 174.411 86.6741 179.833 85.4883L213.704 78.1064C214.749 77.8784 215.74 77.4474 216.618 76.8381C217.497 76.2288 218.246 75.4531 218.824 74.5552C219.401 73.6574 219.795 72.655 219.984 71.6054C220.173 70.5557 220.152 69.4793 219.923 68.4376C219.694 67.3959 219.262 66.4093 218.65 65.5341C218.039 64.659 217.26 63.9124 216.359 63.337C215.457 62.7617 214.451 62.3688 213.398 62.1808C212.344 61.9928 211.264 62.0134 210.218 62.2414L177.453 69.4084C175.847 69.7278 174.417 70.6313 173.444 71.9428C172.992 72.574 172.681 73.2942 172.532 74.0551C172.383 74.816 172.4 75.5998 172.58 76.3538C173.293 79.6114 176.38 81.4162 179.918 80.6409L208.092 74.5034L208.603 76.8163L180.428 82.9538C175.621 84.0028 171.272 81.3836 170.259 76.862C169.245 72.3403 172.142 68.1444 176.942 67.0889L209.708 59.922C211.067 59.6024 212.477 59.5556 213.855 59.7842C215.233 60.0129 216.552 60.5124 217.734 61.2536C218.916 61.9949 219.938 62.9631 220.741 64.1019C221.544 65.2407 222.112 66.5272 222.411 67.8867C222.71 69.2461 222.734 70.6512 222.483 72.0201C222.231 73.389 221.709 74.6944 220.946 75.8602C220.183 77.026 219.195 78.0289 218.039 78.8105C216.883 79.5921 215.583 80.1368 214.214 80.4128L180.35 87.8013C178.408 88.1968 176.4 88.1284 174.491 87.6018C172.581 87.0752 170.824 86.1053 169.363 84.7716Z" fill="#272727"/>
<path d="M165.464 200.897C165.156 198.124 165.731 195.328 167.108 192.908C168.814 189.98 171.568 187.811 174.816 186.837C176.417 186.335 178.106 186.168 179.777 186.346C181.448 186.525 183.065 187.045 184.529 187.875L200.408 196.989L199.233 199.046L183.354 189.931C182.169 189.262 180.861 188.844 179.51 188.703C178.159 188.562 176.794 188.7 175.501 189.11C172.835 189.91 170.573 191.689 169.169 194.091C166.292 199.116 167.927 205.697 172.741 208.459L202.796 225.734C203.724 226.267 204.747 226.613 205.807 226.751C206.867 226.889 207.943 226.818 208.974 226.54C210.005 226.263 210.971 225.785 211.815 225.134C212.66 224.483 213.367 223.671 213.897 222.746C214.427 221.82 214.769 220.799 214.904 219.739C215.038 218.68 214.963 217.604 214.681 216.573C214.4 215.541 213.918 214.574 213.263 213.728C212.609 212.881 211.794 212.17 210.867 211.637L181.775 194.945C180.371 194.104 178.705 193.814 177.102 194.131C176.344 194.296 175.63 194.621 175.009 195.084C174.387 195.548 173.873 196.14 173.501 196.82C171.841 199.713 172.917 203.123 176.059 204.924L201.058 219.296L199.882 221.352L174.884 206.981C170.618 204.53 169.154 199.669 171.439 195.638C173.724 191.606 178.689 190.443 182.955 192.884L212.046 209.576C213.268 210.252 214.344 211.164 215.212 212.259C216.079 213.354 216.721 214.609 217.099 215.952C217.477 217.295 217.585 218.699 217.415 220.082C217.245 221.466 216.802 222.8 216.111 224.008C215.419 225.216 214.494 226.274 213.388 227.119C212.283 227.965 211.019 228.581 209.671 228.933C208.323 229.284 206.917 229.364 205.536 229.167C204.154 228.97 202.825 228.5 201.625 227.785L171.571 210.52C169.867 209.509 168.425 208.11 167.363 206.438C166.302 204.765 165.651 202.866 165.464 200.897Z" fill="#272727"/>
<path d="M157.224 54.9833C154.994 56.6556 152.292 57.5856 149.501 57.6416C146.1 57.6722 142.814 56.4172 140.305 54.1298C139.049 53.0138 138.036 51.6527 137.33 50.1307C136.623 48.6087 136.238 46.9583 136.198 45.2819L135.904 27.0389H138.278L138.579 45.2819C138.607 46.6408 138.917 47.9792 139.49 49.2127C140.063 50.4462 140.886 51.5481 141.908 52.4488C143.968 54.3292 146.667 55.3627 149.461 55.3417C155.269 55.2439 160.095 50.4942 160.01 44.9627L159.441 10.4312C159.424 9.36507 159.196 8.31287 158.77 7.33464C158.344 6.35641 157.729 5.47131 156.96 4.72988C156.191 3.98844 155.283 3.40518 154.287 3.01341C153.292 2.62164 152.229 2.42903 151.159 2.44657C150.088 2.46411 149.032 2.69146 148.05 3.11564C147.068 3.53982 146.18 4.15252 145.436 4.91877C144.691 5.68501 144.106 6.58979 143.713 7.58144C143.319 8.57309 143.126 9.6322 143.144 10.6983L143.687 44.1091C143.685 45.7417 144.294 47.3163 145.393 48.5266C145.931 49.0788 146.581 49.5108 147.299 49.7939C148.017 50.077 148.788 50.2046 149.559 50.1684C152.901 50.1163 155.289 47.458 155.23 43.8485L154.759 15.1222L157.133 15.0831L157.604 43.816C157.689 48.709 154.242 52.4553 149.599 52.5335C144.955 52.6117 141.391 48.9761 141.313 44.0635L140.77 10.6527C140.724 7.87235 141.788 5.18771 143.729 3.18934C145.67 1.19097 148.328 0.0425765 151.119 -0.00321513C153.91 -0.0490067 156.605 1.01156 158.611 2.94517C160.617 4.87878 161.769 7.52704 161.815 10.3074L162.384 44.8389C162.39 46.8157 161.925 48.7657 161.028 50.529C160.131 52.2924 158.828 53.8188 157.224 54.9833Z" fill="#272727"/>
</svg>
