<svg width="215" height="155" viewBox="0 0 215 155" fill="none" xmlns="http://www.w3.org/2000/svg">
<rect x="23.9999" width="153" height="153" rx="76.5" fill="url(#paint0_linear)"/>
<rect x="177.5" y="14.6641" width="13.571" height="13.571" rx="6.78552" fill="#E6E6E6" stroke="#272727"/>
<rect x="0.00683594" y="112.3" width="6.98578" height="6.98578" rx="3.49289" fill="#272727"/>
<rect x="11.7716" y="17.9565" width="6.98578" height="6.98578" rx="3.49289" fill="#272727"/>
<rect x="170.514" y="140.517" width="13.7769" height="13.7769" rx="6.88844" fill="#E6E6E6" stroke="#272727"/>
<rect x="12.2716" y="119.786" width="13.7769" height="13.7769" rx="6.88844" fill="#E6E6E6" stroke="#272727"/>
<rect x="194.659" y="32.2671" width="20.0477" height="20.0477" rx="10.0239" fill="#272727"/>
<path fill-rule="evenodd" clip-rule="evenodd" d="M152.375 53.8478C154.419 55.8918 154.419 59.206 152.375 61.2501L108.347 105.278C99.3843 114.241 84.8531 114.241 75.8906 105.278L49.4302 78.8177C47.3861 76.7736 47.3861 73.4595 49.4302 71.4154C51.4742 69.3713 54.7884 69.3713 56.8325 71.4154L83.2929 97.8758C88.1672 102.75 96.0701 102.75 100.944 97.8758L144.973 53.8478C147.017 51.8037 150.331 51.8037 152.375 53.8478Z" fill="black"/>
<path fill-rule="evenodd" clip-rule="evenodd" d="M144.118 52.9938C146.634 50.478 150.713 50.478 153.229 52.9938C155.745 55.5096 155.745 59.5885 153.229 62.1043L109.201 106.132C99.7667 115.567 84.4707 115.567 75.0365 106.132L48.5761 79.6719C46.0603 77.1561 46.0603 73.0772 48.5761 70.5614C51.0919 68.0456 55.1708 68.0456 57.6866 70.5614L84.147 97.0218C88.5496 101.424 95.6877 101.424 100.09 97.0218L144.118 52.9938ZM151.521 54.702C149.948 53.1296 147.399 53.1296 145.827 54.702L101.799 98.7301C96.4525 104.076 87.7848 104.076 82.4388 98.7301L55.9783 72.2697C54.406 70.6973 51.8567 70.6973 50.2843 72.2697L49.4302 71.4155L50.2843 72.2697C48.7119 73.842 48.7119 76.3913 50.2843 77.9637L49.4302 78.8178L50.2843 77.9637L76.7447 104.424C85.2355 112.915 99.0019 112.915 107.493 104.424L151.521 60.3961C153.093 58.8237 153.093 56.2744 151.521 54.702Z" fill="black"/>
<defs>
<linearGradient id="paint0_linear" x1="100.5" y1="0" x2="100.5" y2="153" gradientUnits="userSpaceOnUse">
<stop stop-color="#FFD700"/>
<stop offset="1" stop-color="#E9C816"/>
</linearGradient>
</defs>
</svg>
