<svg width="154" height="154" viewBox="0 0 154 154" fill="none" xmlns="http://www.w3.org/2000/svg">
<rect opacity="0.5" x="1.9613" y="1.04663" width="151.039" height="151.039" rx="23" fill="white" stroke="#272727" stroke-width="2" stroke-dasharray="15 20"/>
<path d="M79.8307 67.5659C80.8007 67.5759 81.5907 68.0754 82.0507 68.9744C82.1695 69.2116 82.3351 69.5581 82.5085 69.9236L82.7179 70.3656L82.8207 70.5826L82.9207 70.8023C82.9607 70.8722 83.0307 70.9222 83.1207 70.9222C85.5207 70.9222 87.4807 72.88 87.4807 75.2773V81.2108C87.4807 83.6081 85.5207 85.5659 83.1207 85.5659H71.8407C69.4307 85.5659 67.4807 83.6081 67.4807 81.2108V75.2773C67.4807 72.88 69.4307 70.9222 71.8407 70.9222C71.9207 70.9222 72.0007 70.8822 72.0307 70.8023L72.0907 70.6825C72.3707 70.0931 72.7107 69.3739 72.9107 68.9744C73.3707 68.0754 74.1507 67.5759 75.1207 67.5659H79.8307ZM77.4807 73.9688C76.4307 73.9688 75.4407 74.3783 74.6907 75.1275C73.9507 75.8767 73.5407 76.8556 73.5507 77.8944C73.5507 78.9433 73.9607 79.9222 74.7007 80.6714C75.4507 81.4105 76.4307 81.8201 77.4807 81.8201C78.5607 81.8201 79.5407 81.3806 80.2507 80.6714C80.9607 79.9621 81.4007 78.9832 81.4107 77.8944C81.4107 76.8556 81.0007 75.8667 80.2607 75.1175C79.5207 74.3783 78.5307 73.9688 77.4807 73.9688ZM77.4807 75.4671C78.1307 75.4671 78.7407 75.7169 79.2007 76.1764C79.6607 76.6358 79.9107 77.2452 79.9107 77.8944C79.9007 79.233 78.8207 80.3217 77.4807 80.3217C76.8307 80.3217 76.2207 80.072 75.7607 79.6125C75.3007 79.153 75.0507 78.5437 75.0507 77.8944V77.8845C75.0407 77.2552 75.2907 76.6458 75.7507 76.1863C76.2207 75.7169 76.8307 75.4671 77.4807 75.4671ZM83.0907 73.7291C82.5907 73.7291 82.1907 74.1386 82.1907 74.6381C82.1907 75.1375 82.5907 75.5371 83.0907 75.5371C83.5907 75.5371 84.0007 75.1375 84.0007 74.6381C84.0007 74.1386 83.5907 73.7291 83.0907 73.7291Z" fill="#272727"/>
</svg>
