<svg width="16" height="16" viewBox="0 0 16 16" fill="none" xmlns="http://www.w3.org/2000/svg">
<circle opacity="0.5" cx="8" cy="8" r="8" fill="#272727"/>
<path fill-rule="evenodd" clip-rule="evenodd" d="M5.70191 4.64125C5.40902 4.34835 4.93415 4.34835 4.64125 4.64125C4.34836 4.93414 4.34836 5.40901 4.64125 5.70191L6.93936 8.00001L4.64126 10.2981C4.34837 10.591 4.34837 11.0659 4.64126 11.3588C4.93416 11.6517 5.40903 11.6517 5.70192 11.3588L8.00002 9.06067L10.2981 11.3588C10.591 11.6517 11.0659 11.6517 11.3588 11.3588C11.6517 11.0659 11.6517 10.591 11.3588 10.2981L9.06068 8.00001L11.3588 5.70191C11.6517 5.40901 11.6517 4.93414 11.3588 4.64125C11.0659 4.34835 10.591 4.34835 10.2981 4.64125L8.00002 6.93935L5.70191 4.64125Z" fill="white"/>
</svg>
