<svg width="357" height="518" viewBox="0 0 357 518" fill="none" xmlns="http://www.w3.org/2000/svg">
<path fill-rule="evenodd" clip-rule="evenodd" d="M-127.078 474.023C-64.8364 492.005 -20.7715 439.629 16.2316 411.264C45.6225 388.733 175.405 399.396 230.564 379.218C285.722 359.039 400.312 264.637 253.382 149.407C50.8004 -9.46725 -9.17019 87.7391 -65.07 189.02C-120.97 290.3 -135.869 249.573 -171.743 308.874C-207.618 368.176 -189.32 456.041 -127.078 474.023Z" fill="#58AECC"/>
<path fill-rule="evenodd" clip-rule="evenodd" d="M49.4585 187.967C53.1236 185.45 58.0115 185.285 62.2823 186.52C66.553 187.755 70.3423 190.233 74.0144 192.739C88.0483 202.315 101.45 212.818 114.104 224.156C116.562 226.358 119.016 228.62 120.852 231.362C124.458 236.75 125.128 244.548 120.901 249.464C117.89 252.966 112.957 254.392 108.355 254.011C103.752 253.63 99.4251 251.654 95.4591 249.287C84.6826 242.857 75.9928 233.493 65.9074 226.025C59.3263 221.152 51.9459 216.885 47.456 210.037C42.9662 203.189 42.7075 192.601 49.4585 187.967" fill="white"/>
<path d="M263.446 136.424C262.289 135.852 261.86 134.437 261.652 133.163C260.721 127.471 261.879 121.461 264.859 116.523C266.422 113.933 268.819 111.458 271.841 111.323C273.964 111.228 276.015 112.359 277.408 113.964C278.802 115.568 279.613 117.6 280.157 119.654C281.371 124.241 282.334 133.014 280.434 136.223C278.534 139.432 264.095 137.837 263.446 136.424Z" fill="white"/>
<path d="M251.405 172.698C249.045 165.245 248.206 157.314 248.953 149.531C249.023 148.801 249.147 147.994 249.718 147.532C250.288 147.071 291.837 144.024 293.414 144.705C294.422 152.147 294.774 159.677 294.465 167.18C294.356 169.824 293.402 173.253 290.757 173.318C279.453 173.595 268.15 173.873 256.847 174.15C256.208 174.166 252.251 175.372 251.405 172.698Z" fill="white"/>
<path fill-rule="evenodd" clip-rule="evenodd" d="M238.647 224.848C238.29 213.936 237.232 189.739 241.295 187.483C253.084 180.938 250.629 173.378 255.903 173.072C263.989 172.604 285.937 168.221 288.467 175.916C290.997 183.611 288.33 185.147 293.197 187.483C301.238 191.344 303.816 188.25 308.182 198.401C309.429 201.3 309.32 204.627 309.485 207.779C309.869 215.103 309.337 222.459 309.824 229.776C310.307 237.036 311.524 274.304 308.182 285.543C306.583 290.918 283.368 287.759 277.121 287.202C265.494 286.166 252.653 288.242 241.295 285.543C241.295 285.543 239.326 245.64 238.647 224.848Z" fill="white"/>
<path d="M209.887 141.995C211.866 141.574 213.276 143.828 214.003 145.715C220.059 161.423 224.059 177.835 229.233 193.854C238.424 222.312 251.337 249.595 258.269 278.686C258.584 280.006 258.823 281.581 257.885 282.561C257.155 283.322 255.989 283.412 254.936 283.453C229.823 284.428 204.7 285.124 179.572 285.54C178.983 285.55 178.354 285.549 177.862 285.225C177.342 284.882 177.096 284.261 176.879 283.678C163.41 247.361 152.095 210.246 143.013 172.592C142.791 171.673 137.693 147.4 137.975 146.784C138.366 145.927 139.44 145.67 140.372 145.531C163.36 142.093 187.153 146.832 209.887 141.995Z" fill="white"/>
<path d="M158.36 304.958C159.016 305.716 158.951 306.84 158.85 307.837C158.075 315.454 157.3 323.07 156.525 330.687C156.466 331.275 156.382 331.914 155.961 332.329C155.386 332.895 154.454 332.8 153.658 332.666C130.491 328.755 107.324 324.845 84.1567 320.934C83.0279 320.744 81.7975 320.497 81.0725 319.611C80.3786 318.763 80.347 317.566 80.3962 316.472C80.4933 314.309 80.777 312.154 81.2433 310.04C81.4328 309.18 82.0824 304.534 80.9813 303.868C79.0653 302.708 78.1919 300.305 78.2562 298.067C78.3205 295.828 79.1638 293.695 79.9955 291.615C80.5045 290.342 81.0782 288.989 82.2303 288.246C83.4292 287.473 84.9668 287.546 86.3883 287.665C92.4736 288.175 98.5294 289.037 104.516 290.243C111.744 291.7 118.861 293.658 125.971 295.614C136.128 298.408 146.284 301.202 156.441 303.996C157.142 304.189 157.885 304.408 158.36 304.958Z" fill="white"/>
<path d="M151.019 336.248C147.78 363.525 142.412 390.548 134.98 416.992C134.68 418.059 134.335 419.192 133.488 419.908C132.216 420.984 130.327 420.734 128.691 420.422C110.309 416.92 91.9636 413.226 73.6586 409.342C72.8985 409.181 72.0265 408.93 71.7306 408.212C71.569 407.82 71.6252 407.376 71.684 406.956C75.4287 380.216 79.1832 353.423 85.5492 327.183C85.9023 325.728 87.07 323.867 88.3965 324.563C89.3279 325.051 135.984 333.02 151.019 336.248Z" fill="white"/>
<path fill-rule="evenodd" clip-rule="evenodd" d="M278.293 133.742C277.283 133.338 277.132 131.992 277.153 130.904C277.163 130.416 277.174 129.926 277.185 129.435V129.435V129.435V129.435C277.295 124.649 277.406 119.783 275.812 115.292C275.364 114.03 274.665 112.699 273.406 112.243C271.36 111.501 269.373 113.465 268.272 115.342C265.893 119.397 264.62 124.094 264.624 128.796L264.624 128.875C264.626 130.383 264.628 132.121 263.446 133.045C262.289 132.474 261.86 131.058 261.652 129.784C260.721 124.093 261.879 118.082 264.859 113.144C266.422 110.554 268.819 108.079 271.841 107.944C273.964 107.85 276.015 108.981 277.408 110.585C278.802 112.19 279.613 114.221 280.157 116.276C281.371 120.863 281.362 125.685 281.019 130.418C280.959 131.256 280.876 132.13 280.434 132.844C279.991 133.559 279.074 134.054 278.293 133.742ZM239.119 201.074L239.869 213.573C238.18 208.232 236.476 202.804 236.343 197.204C236.209 191.604 237.856 185.709 241.963 181.9C242.992 180.946 244.147 180.145 245.302 179.344C246.456 178.543 247.61 177.743 248.638 176.79C250.695 174.884 252.251 171.994 251.405 169.32C249.045 161.866 248.206 153.935 248.953 146.153C249.023 145.423 249.147 144.615 249.718 144.154C250.288 143.693 251.405 143.995 251.362 144.727C250.953 151.722 251.581 158.777 253.217 165.59C253.351 166.146 253.517 166.741 253.964 167.097C254.394 167.44 254.984 167.481 255.534 167.505C266.062 167.975 276.612 167.96 287.139 167.459C288.98 167.371 291.4 166.688 291.36 164.845L290.92 144.822C290.882 143.104 291.837 140.646 293.414 141.327C294.422 148.768 294.774 156.299 294.465 163.802C294.356 166.446 293.402 169.875 290.757 169.94L256.847 170.772C256.208 170.787 255.377 170.969 255.314 171.605C254.949 175.243 252.103 178.112 249.182 180.311C248.639 180.719 248.085 181.119 247.53 181.52L247.53 181.52C245.094 183.279 242.638 185.053 241.073 187.586C238.644 191.516 238.842 196.463 239.119 201.074ZM269.919 208.631C269.986 207.226 270.086 205.733 270.911 204.594C272.223 202.782 274.789 202.557 277.025 202.496L298.486 201.914C299.579 201.884 300.774 201.886 301.629 202.567C302.759 203.468 302.818 205.133 302.78 206.577C302.736 208.242 302.68 209.96 301.976 211.469C301.273 212.978 299.741 214.232 298.084 214.073C290.848 213.38 283.589 212.929 276.323 212.722C274.931 212.682 273.013 213.174 273.151 214.559C274.424 227.269 274.309 240.118 272.809 252.803C272.612 254.47 274.857 255.173 276.534 255.255L292.188 256.024C293.423 256.085 295.016 256.466 295.128 257.698C295.262 259.18 293.18 259.65 291.694 259.556L274.523 258.476C273.088 258.385 271.523 258.24 270.49 257.24C269.345 256.132 269.242 254.361 269.217 252.769C268.987 238.054 269.221 223.331 269.919 208.631ZM309.157 277.839C309.9 252.891 309.84 227.918 308.979 202.974C308.856 199.392 308.707 195.759 307.615 192.345C306.524 188.931 304.356 185.707 301.137 184.131C300.083 183.615 298.889 183.236 297.7 182.858L297.7 182.858C294.909 181.972 292.148 181.095 291.284 178.478C291.057 177.792 291.008 177.06 290.959 176.331C290.9 175.445 290.84 174.561 290.462 173.768C289.772 172.322 287.044 172.006 286.946 173.605C286.566 179.825 291.483 185.919 297.642 186.865C300.878 187.361 303.396 190.127 304.546 193.192C305.696 196.257 305.728 199.611 305.742 202.885C305.849 228.337 305.702 253.79 305.302 279.239C305.291 279.954 305.247 280.75 304.734 281.248C304.247 281.721 303.5 281.767 302.822 281.779C296.726 281.884 290.628 281.389 284.535 280.894C276.265 280.223 268.005 279.553 259.77 280.384C258.33 280.529 256.422 281.919 257.469 282.919C257.798 283.233 258.295 283.276 258.75 283.301L301.891 285.673C303.421 285.757 305.049 285.819 306.377 285.056C308.719 283.711 309.077 280.538 309.157 277.839ZM268.623 136.845C262.554 136.407 256.24 136.473 250.674 138.933C249.789 139.325 248.794 140.371 249.458 141.077C255.938 137.848 263.602 138.43 270.774 139.417C271.348 139.496 271.923 139.577 272.5 139.658C279.129 140.591 285.917 141.547 292.32 139.713C293.3 139.432 294.475 138.737 294.255 137.742C294.026 136.712 292.604 136.622 291.563 136.788C291.174 136.85 290.785 136.914 290.397 136.978L290.397 136.978C289.213 137.173 288.028 137.368 286.836 137.502C282.154 138.028 277.442 137.608 272.736 137.188L272.736 137.188L272.735 137.188C271.364 137.066 269.993 136.944 268.623 136.845ZM280.635 230.044C279.419 230.026 278.124 229.985 277.121 229.298C277.475 228.668 278.32 228.557 279.041 228.518L292.413 227.802C293.084 227.766 293.906 227.81 294.215 228.407C294.493 228.944 294.129 229.633 293.599 229.924C293.069 230.215 292.434 230.213 291.829 230.205L280.635 230.044ZM295.753 218.797L279.057 219.625C278.138 219.67 276.958 219.946 276.857 220.86L296.496 221.564C297.293 221.593 298.271 221.518 298.612 220.797C298.914 220.159 298.461 219.369 297.831 219.052C297.2 218.735 296.459 218.763 295.753 218.797Z" fill="#00160A"/>
<path fill-rule="evenodd" clip-rule="evenodd" d="M83.5524 379.308C91.9609 379.099 100.4 380.159 108.496 382.439C111.167 383.191 114.126 384.056 116.608 382.815C120.016 381.113 120.559 376.581 120.846 372.782C121.504 364.077 123.145 355.446 125.725 347.106C126.119 345.832 125.395 344.426 124.334 343.619C123.272 342.813 121.937 342.475 120.641 342.162C111.304 339.902 101.906 337.894 92.4603 336.142C91.849 336.028 91.8247 335.051 92.3165 334.67C92.8082 334.29 93.4964 334.34 94.114 334.411C103.57 335.5 112.944 337.298 122.132 339.785C124.737 340.49 127.694 341.588 128.533 344.153C128.963 345.47 128.716 346.902 128.465 348.265C126.668 358.038 124.87 367.811 123.072 377.584C122.68 379.711 122.244 381.938 120.874 383.611C117.793 387.374 111.922 386.522 107.208 385.323C99.3231 383.318 91.4377 381.313 83.5524 379.308Z" fill="#00160A"/>
<path fill-rule="evenodd" clip-rule="evenodd" d="M172.468 140.871C161.72 140.72 150.961 140.569 140.373 142.152C139.44 142.292 138.366 142.549 137.975 143.406C137.694 144.022 137.874 144.739 138.058 145.391L142.065 159.577C142.523 161.198 143.793 163.244 145.334 162.561C143.921 155.905 142.307 149.291 140.494 142.732C162.747 144.067 185.087 143.964 207.327 142.422C209.37 142.28 212.016 142.515 212.598 144.479C219.584 168.035 226.574 191.605 234.836 214.745C236.306 218.861 237.817 222.968 239.329 227.076C245.218 243.082 251.114 259.103 254.59 275.777C254.666 276.142 254.736 276.546 254.552 276.872C254.285 277.345 253.641 277.41 253.097 277.418L182.073 278.508C181.285 278.52 180.435 278.513 179.8 278.046C179.229 277.625 178.957 276.919 178.714 276.253C165.886 241.02 154.87 205.127 145.725 168.764C145.451 167.675 144.653 166.286 143.608 166.699C142.729 167.046 142.792 168.295 143.013 169.213C152.095 206.867 163.411 243.983 176.88 280.299C177.096 280.882 177.343 281.504 177.862 281.846C178.354 282.17 178.984 282.172 179.573 282.162C204.7 281.746 229.824 281.05 254.936 280.074C255.99 280.034 257.156 279.944 257.885 279.182C258.824 278.202 258.584 276.627 258.27 275.307C254.004 257.407 247.474 240.191 240.94 222.964L240.94 222.964L240.94 222.964C236.855 212.195 232.769 201.422 229.234 190.476C227.356 184.661 225.632 178.795 223.909 172.93L223.909 172.929L223.909 172.929L223.909 172.929C220.885 162.635 217.861 152.343 214.004 142.337C213.276 140.45 211.866 138.195 209.888 138.616C197.625 141.225 185.055 141.048 172.468 140.871ZM158.789 162.982C157.857 159.803 159.755 156.261 162.615 154.59C165.476 152.919 169.036 152.847 172.266 153.582C173.551 153.875 174.808 154.287 176.017 154.811C178.505 155.89 180.818 157.48 182.443 159.652C183.121 160.558 183.682 161.789 183.139 162.782C181.177 166.37 177.597 169.032 173.596 169.879C169.595 170.726 165.244 169.742 161.996 167.257C160.557 166.156 159.299 164.72 158.789 162.982ZM163.958 165.628C168.983 168.823 176.403 167.361 179.841 162.5C180.551 161.495 181.037 159.958 180.103 159.157C177.395 156.835 173.881 155.556 170.328 155.248C168.044 155.05 165.623 155.27 163.694 156.508C161.764 157.746 160.494 160.204 161.179 162.392C161.613 163.777 162.733 164.849 163.958 165.628ZM182.206 201.509C179.724 202.761 176.851 202.939 174.072 202.954L174.258 204.041C176.782 204.146 179.34 204.187 181.798 203.61C184.257 203.034 186.64 201.775 188.111 199.723C190.341 196.612 189.999 192.072 187.732 188.988C185.465 185.905 181.581 184.244 177.755 184.155C174.029 184.069 170.166 185.472 167.809 188.359C165.452 191.246 164.927 195.679 167.026 198.758C169.125 201.838 173.926 202.864 176.815 200.51C177.169 200.222 177.089 199.62 176.768 199.295C176.448 198.97 175.977 198.852 175.529 198.763C175.312 198.72 175.092 198.679 174.87 198.637L174.87 198.637C173.361 198.356 171.799 198.064 170.734 196.992C169.494 195.744 169.327 193.674 170.068 192.077C170.81 190.481 172.316 189.336 173.955 188.694C177.104 187.461 180.882 187.997 183.563 190.058C185.102 191.241 186.309 192.974 186.466 194.908C186.691 197.678 184.688 200.258 182.206 201.509ZM232.475 224.944C232.94 225.092 233.422 225.273 233.741 225.643C234.06 226.014 234.146 226.629 233.8 226.974C229.482 225.817 224.703 226.502 220.883 228.824C219.784 229.493 218.648 230.54 218.803 231.818C218.919 232.776 219.736 233.488 220.561 233.988C225.063 236.711 231.544 235.441 234.685 231.22L234.735 231.153C235.341 230.337 236.069 229.358 237.062 229.5C237.787 229.604 238.296 230.337 238.36 231.065C238.424 231.794 238.14 232.508 237.801 233.156C236.159 236.296 233.091 238.609 229.666 239.516C226.241 240.423 222.507 239.96 219.315 238.424C217.163 237.388 215.12 235.692 214.595 233.363C214.131 231.299 214.988 229.086 216.46 227.567C217.932 226.048 219.943 225.149 221.993 224.628C225.425 223.756 229.101 223.867 232.475 224.944ZM211.109 259.406C210.35 257.144 207.816 256.027 205.481 255.537C200.922 254.58 195.816 255.128 192.207 258.073C190.729 259.278 189.506 261.402 190.524 263.014C191.115 263.95 192.256 264.349 193.312 264.684L197.924 266.145C198.595 266.358 198.544 267.438 197.974 267.852C197.404 268.266 196.629 268.204 195.931 268.111C193.873 267.838 191.773 267.427 190.023 266.311C188.272 265.196 186.929 263.228 187.096 261.159C187.194 259.94 187.794 258.812 188.533 257.837C191.865 253.443 197.913 251.869 203.401 252.405C205.913 252.65 208.461 253.308 210.465 254.842C212.47 256.375 213.833 258.913 213.453 261.408C213.054 264.038 210.879 266.062 208.542 267.332C205.626 268.917 202.259 269.664 198.946 269.462L198.763 268.484C200.577 268.236 202.374 267.864 204.137 267.372C206.047 266.839 207.976 266.13 209.424 264.776C210.872 263.422 211.74 261.285 211.109 259.406ZM199.826 226.165C199.875 226.805 199.619 227.428 199.322 227.997C197.162 232.137 192.34 234.721 187.696 234.226C186.641 234.114 185.284 234.006 184.817 234.958C190.34 237.299 196.988 234.626 200.943 230.115C201.659 229.298 202.326 228.395 202.602 227.345C203.042 225.669 202.393 223.838 201.236 222.548C200.079 221.259 198.477 220.447 196.837 219.889C192.377 218.372 187.351 218.591 183.04 220.491C181.116 221.339 179.292 222.549 178.095 224.277C176.898 226.006 176.413 228.313 177.195 230.264C177.978 232.216 180.187 233.604 182.232 233.116C183.255 232.871 184.269 231.828 183.829 230.873C183.542 230.249 182.863 230.069 182.163 229.883C181.638 229.743 181.101 229.6 180.709 229.265C180.047 228.697 179.96 227.658 180.3 226.856C180.64 226.054 181.32 225.448 182.023 224.932C186.396 221.727 192.559 221.162 197.442 223.52C198.563 224.061 199.732 224.924 199.826 226.165ZM196.638 169.017C195.237 168.572 193.855 167.889 192.933 166.745C191.195 164.59 191.59 161.249 193.268 159.046C194.947 156.844 197.616 155.613 200.295 154.912C203.404 154.099 206.671 153.89 209.859 154.3C211.834 154.554 213.994 155.198 214.98 156.928C216.102 158.897 215.211 161.42 213.895 163.265C210.132 168.545 202.816 170.983 196.638 169.017ZM206.086 155.642C204.145 155.793 202.221 156.157 200.359 156.725C198.332 157.344 196.286 158.277 195.028 159.983C193.77 161.689 193.59 164.334 195.119 165.802C195.91 166.563 197.015 166.903 198.098 167.088C202.56 167.85 207.358 166.248 210.466 162.957C211.675 161.677 212.679 159.884 212.12 158.215C211.37 155.975 208.441 155.459 206.086 155.642ZM234.382 266.516C230.56 266.555 226.565 265.777 223.597 263.369C222.131 262.18 220.902 260.375 221.244 258.518C221.478 257.244 222.407 256.211 223.402 255.38C226.557 252.747 230.809 251.471 234.893 251.932L235.012 251.946C235.687 252.023 236.409 252.106 236.979 251.748C238.594 250.73 240.747 251.644 242.192 252.892C244.087 254.528 245.528 256.92 245.317 259.415C245.115 261.796 243.416 263.87 241.318 265.014C239.22 266.159 236.771 266.491 234.382 266.516ZM242.949 258.424C242.921 256.6 241.598 254.979 239.97 254.158C238.343 253.336 236.458 253.191 234.636 253.243C231.428 253.335 228.153 254.032 225.505 255.844C224.452 256.565 223.446 257.588 223.381 258.863C223.294 260.548 224.865 261.846 226.412 262.521C228.81 263.566 231.474 263.835 234.09 263.869C236.031 263.895 238.037 263.784 239.786 262.941C241.536 262.098 242.978 260.365 242.949 258.424ZM225.678 194.227C225.483 193.621 225.103 192.965 224.471 192.88C223.771 192.787 223.186 193.483 223.06 194.178C222.978 194.635 223.027 195.098 223.076 195.563C223.102 195.805 223.127 196.046 223.135 196.288C223.215 198.996 220.843 201.328 218.204 201.943C215.566 202.558 212.79 201.795 210.333 200.654C209.381 200.212 208.428 199.691 207.769 198.873C206.141 196.854 206.964 193.615 208.959 191.956C210.954 190.297 213.724 189.915 216.316 190.029C219.031 190.147 221.725 190.737 224.241 191.764C224.14 190.211 222.31 189.473 220.788 189.147C217.08 188.354 213.069 187.917 209.616 189.484C206.163 191.051 203.674 195.267 205.205 198.736C205.934 200.388 207.411 201.592 208.967 202.51C212.436 204.554 216.807 205.447 220.538 203.933C224.269 202.418 226.911 198.061 225.678 194.227Z" fill="#00160A"/>
<path fill-rule="evenodd" clip-rule="evenodd" d="M131.594 416.909C133.24 406.869 135.601 396.947 138.654 387.241C143.921 370.498 142.966 351.845 151.019 336.248C147.78 363.525 142.412 390.548 134.98 416.992C134.68 418.059 134.335 419.192 133.488 419.908C132.216 420.984 130.328 420.734 128.691 420.422C110.309 416.92 91.9636 413.226 73.6587 409.342C72.8985 409.181 72.0266 408.93 71.7306 408.212C71.5691 407.82 71.6252 407.376 71.6841 406.956C75.4288 380.216 79.1833 353.423 85.5492 327.183C85.9024 325.728 87.0701 323.867 88.3966 324.563C89.328 325.051 89.2697 326.383 89.078 327.417C84.3352 353 79.5923 378.583 74.8495 404.165C74.6446 405.271 76.0349 405.918 77.1331 406.157C95.2148 410.093 113.373 413.678 131.594 416.909Z" fill="#00160A"/>
<path fill-rule="evenodd" clip-rule="evenodd" d="M158.36 304.958C159.016 305.716 158.951 306.84 158.85 307.837C158.075 315.454 157.3 323.07 156.525 330.687C156.466 331.275 156.382 331.914 155.961 332.329C155.386 332.895 154.454 332.8 153.658 332.666C130.491 328.755 107.324 324.845 84.1567 320.934C83.0279 320.744 81.7975 320.497 81.0725 319.611C80.3786 318.763 80.347 317.566 80.3962 316.472C80.4933 314.309 80.777 312.154 81.2433 310.04C81.4328 309.18 81.8896 308.134 82.7694 308.154C83.9835 308.183 84.034 309.971 83.7262 311.146C83.3018 312.766 82.9871 314.414 82.785 316.077C82.6996 316.78 82.6626 317.578 83.138 318.104C83.5182 318.524 84.1197 318.644 84.6778 318.742C107.635 322.753 130.592 326.765 153.55 330.776C153.836 330.826 154.169 330.863 154.381 330.665C154.542 330.514 154.577 330.275 154.602 330.055C155.467 322.501 156.333 314.946 157.198 307.391C157.258 306.871 157.217 306.186 156.716 306.033C134.14 299.13 111.169 293.521 87.9516 289.243C86.0047 288.884 84.0076 289.987 82.8102 291.563C81.6127 293.14 81.0798 295.116 80.7134 297.061C80.2744 299.393 80.6829 302.652 83.039 302.927C103.085 305.27 123.049 308.309 142.883 312.037C143.006 312.756 141.94 312.976 141.218 312.874C122.369 310.218 103.52 307.563 84.6707 304.907C83.3964 304.727 82.0824 304.534 80.9813 303.868C79.0653 302.708 78.1919 300.305 78.2562 298.067C78.3205 295.828 79.1638 293.695 79.9955 291.615C80.5045 290.342 81.0782 288.989 82.2303 288.246C83.4292 287.473 84.9668 287.546 86.3883 287.665C92.4736 288.175 98.5294 289.037 104.516 290.243C111.744 291.7 118.861 293.658 125.971 295.614C136.128 298.408 146.284 301.202 156.441 303.996C157.142 304.189 157.885 304.408 158.36 304.958Z" fill="#00160A"/>
<path fill-rule="evenodd" clip-rule="evenodd" d="M118.196 350.199C118.726 350.242 118.788 351.098 118.367 351.422C117.946 351.746 117.355 351.685 116.83 351.608C110.799 350.729 104.768 349.85 98.7373 348.971C98.0006 348.863 97.2271 348.741 96.6407 348.282C96.0542 347.824 95.7531 346.91 96.2034 346.317C96.7538 345.593 97.8793 345.831 98.74 346.126C105.024 348.28 111.576 349.652 118.196 350.199Z" fill="#00160A"/>
<path fill-rule="evenodd" clip-rule="evenodd" d="M93.7354 356C94.0941 354.98 95.6025 355.294 96.5813 355.753C101.729 358.172 107.524 359.197 113.19 358.69C113.651 358.649 114.165 358.612 114.528 358.899C114.892 359.186 114.848 359.926 114.387 359.978C108.03 360.7 101.516 360.007 95.4527 357.965C94.53 357.654 93.4125 356.918 93.7354 356L93.7354 356Z" fill="#00160A"/>
<path fill-rule="evenodd" clip-rule="evenodd" d="M49.4585 187.967C53.1236 185.45 58.0115 185.285 62.2823 186.52C66.553 187.755 70.3423 190.233 74.0144 192.739C88.0483 202.315 101.45 212.818 114.104 224.156C116.562 226.358 119.016 228.62 120.852 231.362C124.458 236.75 125.128 244.548 120.901 249.464C117.89 252.966 112.957 254.392 108.355 254.011C103.752 253.63 99.4251 251.654 95.4591 249.287C84.6826 242.857 75.9928 233.493 65.9074 226.025C59.3263 221.152 51.9459 216.885 47.456 210.037C42.9662 203.189 42.7075 192.601 49.4585 187.967M67.6288 193.569C63.0601 191.385 57.3705 189.707 53.1786 192.549C49.2491 195.212 48.4835 200.977 50.2363 205.389C51.9892 209.801 55.656 213.134 59.316 216.157C63.1341 219.311 67.0784 222.312 71.1362 225.15C71.8406 225.643 73.0699 225.982 73.3394 225.166C75.7997 217.712 81.1175 211.241 87.9535 207.382C81.9247 201.791 75.0469 197.117 67.6288 193.569ZM98.2379 239.592C93.1974 236.409 88.1568 233.226 83.1162 230.044C82.1021 229.404 80.4161 228.959 79.9992 230.083C86.185 234.468 92.5753 238.565 99.1423 242.355C99.6946 242.117 99.8177 241.335 99.5483 240.797C99.2788 240.259 98.7464 239.913 98.2379 239.592Z" fill="#272727"/>
<path fill-rule="evenodd" clip-rule="evenodd" d="M287.447 321.636C287.698 321.636 287.902 321.84 287.902 322.091V325.417C287.902 325.969 288.35 326.417 288.902 326.417H292.228C292.48 326.417 292.683 326.621 292.683 326.872V329.149C292.683 329.4 292.48 329.604 292.228 329.604H288.902C288.35 329.604 287.902 330.052 287.902 330.604V333.93C287.902 334.181 287.698 334.385 287.447 334.385H285.17C284.919 334.385 284.715 334.181 284.715 333.93V330.604C284.715 330.052 284.267 329.604 283.715 329.604H280.389C280.138 329.604 279.934 329.4 279.934 329.149V326.872C279.934 326.621 280.138 326.417 280.389 326.417H283.715C284.267 326.417 284.715 325.969 284.715 325.417V322.091C284.715 321.84 284.919 321.636 285.17 321.636H287.447Z" fill="#272727"/>
<path fill-rule="evenodd" clip-rule="evenodd" d="M305.205 304.333C305.457 304.333 305.661 304.537 305.661 304.788V308.114C305.661 308.666 306.108 309.114 306.661 309.114H309.986C310.238 309.114 310.442 309.318 310.442 309.569V311.846C310.442 312.097 310.238 312.301 309.986 312.301H306.661C306.108 312.301 305.661 312.749 305.661 313.301V316.627C305.661 316.878 305.457 317.082 305.205 317.082H302.929C302.677 317.082 302.473 316.878 302.473 316.627V313.301C302.473 312.749 302.026 312.301 301.473 312.301H298.148C297.896 312.301 297.692 312.097 297.692 311.846V309.569C297.692 309.318 297.896 309.114 298.148 309.114H301.473C302.026 309.114 302.473 308.666 302.473 308.114V304.788C302.473 304.537 302.677 304.333 302.929 304.333H305.205Z" fill="#272727"/>
<path fill-rule="evenodd" clip-rule="evenodd" d="M326.151 333.019C326.403 333.019 326.606 333.223 326.606 333.475V336.8C326.606 337.353 327.054 337.8 327.606 337.8H330.932C331.184 337.8 331.388 338.004 331.388 338.256V340.532C331.388 340.784 331.184 340.988 330.932 340.988H327.606C327.054 340.988 326.606 341.435 326.606 341.988V345.314C326.606 345.565 326.403 345.769 326.151 345.769H323.874C323.623 345.769 323.419 345.565 323.419 345.314V341.988C323.419 341.435 322.971 340.988 322.419 340.988H319.093C318.842 340.988 318.638 340.784 318.638 340.532V338.256C318.638 338.004 318.842 337.8 319.093 337.8H322.419C322.971 337.8 323.419 337.353 323.419 336.8V333.475C323.419 333.223 323.623 333.019 323.874 333.019H326.151Z" fill="#272727"/>
<path fill-rule="evenodd" clip-rule="evenodd" d="M38.1249 216.415C38.7177 216.415 39.1975 216.449 39.5562 216.52L39.6435 216.541L40.2981 216.758C40.6491 216.878 40.8937 217.19 40.9293 217.551L40.9338 217.642L40.9335 222.144L41.1791 221.988C41.5306 221.757 41.9272 221.473 42.4266 221.1L43.7325 220.117C44.0463 219.885 44.2789 219.72 44.5445 219.542C44.7531 219.401 45.01 219.35 45.256 219.399C45.4702 219.442 45.6614 219.557 45.799 219.724L45.8545 219.798L46.149 220.241L48.9004 224.911C49.0275 225.126 49.0629 225.382 48.9997 225.619C48.9368 225.86 48.7786 226.067 48.5617 226.191C48.1712 226.416 47.7477 226.694 47.2311 227.059L46.5952 227.517L45.492 228.322C45.2809 228.475 45.0924 228.609 44.9188 228.73L44.6982 228.882L44.9654 229.018C46.2105 229.663 47.4151 230.428 48.4082 231.236L48.6737 231.458L48.9279 231.681C49.257 231.978 49.3314 232.463 49.1075 232.843L48.6065 233.686C48.4097 234.013 48.1874 234.381 47.952 234.765L47.5026 235.492C46.9226 236.421 46.4219 237.186 46.0389 237.714C45.7994 238.044 45.3752 238.179 44.9935 238.058L44.9062 238.025L44.4275 237.82C44.3799 237.799 44.3541 237.786 44.3273 237.771L44.2994 237.754C44.0487 237.598 43.7827 237.44 43.4798 237.265L42.4726 236.695L41.7111 236.266C41.5421 236.17 41.3875 236.081 41.2434 235.998L40.9369 235.817L40.9332 237.222C40.9258 238.437 40.9085 239.497 40.8781 240.253L40.8635 240.571C40.8408 241.037 40.477 241.409 40.0192 241.454L39.9182 241.458L37.1547 241.376L35.6602 241.339L34.6469 241.322L34.3173 241.377C34.0975 241.414 33.8747 241.371 33.6865 241.261L33.6082 241.21L33.5347 241.151C33.322 240.961 33.2086 240.685 33.2253 240.403C33.2997 239.119 33.302 238.048 33.2515 236.636L33.2161 235.772L28.9973 238.118C28.6132 238.334 28.1403 238.251 27.8501 237.942L27.7908 237.872L27.7377 237.796C26.7206 236.163 25.8595 234.485 24.8617 232.195C24.6913 231.805 24.8096 231.352 25.1404 231.093L25.2146 231.04L26.2701 230.366L26.5631 230.218C27.1852 229.9 28.0982 229.394 29.1248 228.807L29.3724 228.665L28.6211 228.319L27.8103 227.953C27.723 227.912 27.6318 227.867 27.5133 227.808L26.8008 227.447C26.4136 227.254 26.1696 227.147 25.9508 227.076L25.8217 227.038C25.7699 227.024 25.7197 227.006 25.671 226.984L25.5991 226.947L25.1186 226.672C24.851 226.52 24.6759 226.246 24.6508 225.942C24.6248 225.637 24.7505 225.338 24.9881 225.144C25.3829 224.82 25.6521 224.395 26.1371 223.373L26.4941 222.611C27.1243 221.288 27.5357 220.651 28.262 220.022C28.5496 219.772 28.9565 219.723 29.2946 219.888L29.3775 219.933L33.1803 222.294L33.1805 222.176C33.1791 221.9 33.1685 221.581 33.1498 221.189L33.1056 220.316C33.0419 218.951 33.0655 218.256 33.246 217.442C33.3309 217.058 33.649 216.767 34.0422 216.717L34.576 216.653C34.8338 216.624 35.1336 216.592 35.4663 216.561C36.4481 216.469 37.36 216.415 38.1249 216.415ZM38.0628 218.236C37.2265 218.236 36.1946 218.31 35.1859 218.416L34.9423 218.442L34.9382 218.487L34.9231 218.714C34.9037 219.104 34.9125 219.567 34.9432 220.223L34.9938 221.229C34.9978 221.318 35.0011 221.4 35.0042 221.487C35.0426 222.545 35.0027 223.33 34.834 224.072C34.7671 224.367 34.5624 224.612 34.2861 224.728C34.0381 224.833 33.7583 224.824 33.5188 224.708L33.4311 224.659L29.04 221.898L28.991 221.964C28.7442 222.304 28.509 222.737 28.2205 223.35L27.8452 224.162C27.6026 224.682 27.4083 225.067 27.2168 225.385L27.1294 225.524L27.198 225.554C27.3301 225.614 27.465 225.679 27.6161 225.755L28.4922 226.203L28.7199 226.312L29.7608 226.789L30.2768 227.033L30.4377 227.111C31.0645 227.417 31.5274 227.666 31.8167 227.864C32.0802 228.046 32.2331 228.349 32.2229 228.67C32.2128 228.99 32.0408 229.284 31.7651 229.448L31.0299 229.882C30.771 230.034 30.499 230.193 30.2158 230.357L29.163 230.961C28.4635 231.358 27.8755 231.681 27.4283 231.913L27.2099 232.024L26.9242 232.209L27.0418 232.473C27.6004 233.716 28.1236 234.765 28.6749 235.747L28.8777 236.102L33.6083 233.439C33.8629 233.295 34.1673 233.281 34.4321 233.395L34.5294 233.444C34.8127 233.608 34.989 233.909 34.9964 234.238L35.0088 234.688L35.0868 236.58C35.1237 237.606 35.1342 238.45 35.112 239.334L35.1059 239.535L35.7987 239.549C36.4898 239.565 37.3182 239.587 38.2066 239.614L38.9536 239.637L38.9701 238.838C38.9757 238.494 38.9801 238.121 38.9834 237.724L38.9901 236.492C38.993 235.521 38.9907 234.638 38.9875 234.134C38.9857 233.782 39.1794 233.458 39.4934 233.294C39.8064 233.132 40.1825 233.161 40.4678 233.369C40.9661 233.734 41.5061 234.08 42.1922 234.485L42.6838 234.77L44.1722 235.619L44.3881 235.745L44.8552 236.025L44.9056 235.95C45.441 235.134 46.0992 234.061 46.7549 232.956L46.9592 232.61L46.9339 232.59C45.762 231.659 44.172 230.714 42.6445 230.048L42.4273 229.955L42.407 229.953C42.0765 229.892 41.8016 229.654 41.6928 229.329L41.6691 229.246C41.5704 228.825 41.7696 228.39 42.1541 228.193C42.6257 227.952 43.1414 227.627 43.777 227.178L43.9934 227.024C44.173 226.895 44.3561 226.762 44.5836 226.593L45.7294 225.746C46.0816 225.489 46.3626 225.29 46.6224 225.114L46.6946 225.066L44.6936 221.624L44.138 222.048L43.5916 222.466C42.0982 223.601 41.3106 224.107 40.2626 224.529C39.9753 224.643 39.6501 224.607 39.3943 224.431C39.1677 224.276 39.0225 224.029 38.9931 223.758L38.9875 223.656L38.9873 218.284L38.9177 218.275C38.7359 218.254 38.5058 218.241 38.2322 218.237L38.0628 218.236Z" fill="#272727"/>
</svg>
