<svg width="16" height="16" viewBox="0 0 16 16" fill="none" xmlns="http://www.w3.org/2000/svg">
<path d="M16 3.69217H0V4.92279H16V3.69217Z" fill="#F5F5F5"/>
<path d="M15.1645 1.23076H0.835536C0.532161 1.58664 0.298693 2.00392 0.156693 2.46155H15.8434C15.7014 2.00392 15.4679 1.58664 15.1645 1.23076Z" fill="#F5F5F5"/>
<path d="M16 6.15372H0V7.38435H16V6.15372Z" fill="#F5F5F5"/>
<path d="M16 8.61526H0V9.84588H16V8.61526Z" fill="#F5F5F5"/>
<path d="M16 11.0769H0V12.3075H16V11.0769Z" fill="#F5F5F5"/>
<path d="M15.8434 13.5385H0.156693C0.298661 13.9961 0.532161 14.4133 0.835536 14.7692H15.1645C15.4679 14.4133 15.7014 13.9961 15.8434 13.5385Z" fill="#F5F5F5"/>
<path d="M12.5 0H3.50003C2.4329 0 1.47749 0.477719 0.835526 1.23078H15.1645C14.5226 0.477719 13.5672 0 12.5 0Z" fill="#FF4B55"/>
<path d="M16 4.9231H0V6.15372H16V4.9231Z" fill="#FF4B55"/>
<path d="M16 3.49999C16 3.13839 15.9452 2.78964 15.8433 2.46155H0.156656C0.0548438 2.78964 0 3.13839 0 3.49999V3.6923H16V3.49999Z" fill="#FF4B55"/>
<path d="M16 7.38465H0V8.61528H16V7.38465Z" fill="#FF4B55"/>
<path d="M16 12.5V12.3077H0V12.5C0 12.8616 0.0548438 13.2104 0.156656 13.5385H15.8433C15.9452 13.2104 16 12.8616 16 12.5Z" fill="#FF4B55"/>
<path d="M15.1645 14.7692H0.835526C1.47749 15.5223 2.4329 16 3.50003 16H12.5C13.5672 16 14.5226 15.5223 15.1645 14.7692Z" fill="#FF4B55"/>
<path d="M16 9.84627H0V11.0769H16V9.84627Z" fill="#FF4B55"/>
<path d="M8.61537 0H3.5C1.567 0 0 1.567 0 3.5V8.61537H8.61537V0Z" fill="#41479B"/>
<path d="M0.92955 1.3457C0.921362 1.3716 0.950831 1.39304 0.972956 1.37723L1.14367 1.25523L1.31439 1.37723C1.33649 1.39304 1.36599 1.3716 1.3578 1.3457L1.29452 1.14564L1.46333 1.02098C1.48517 1.00482 1.47392 0.970167 1.44674 0.969948L1.23692 0.968323L1.20111 0.860949C1.11117 0.939355 1.02539 1.02235 0.943925 1.10945L0.992893 1.14564L0.92955 1.3457Z" fill="#F5F5F5"/>
<path d="M1.17049 2.42985L1.23687 2.62891L1.44668 2.63054C1.47384 2.63076 1.48512 2.66541 1.46327 2.68157L1.29446 2.80623L1.35774 3.00629C1.36593 3.0322 1.33646 3.0536 1.31434 3.03782L1.14362 2.91579L0.972899 3.03782C0.950805 3.05363 0.921305 3.0322 0.929493 3.00629L0.992774 2.80623L0.823961 2.68157C0.802117 2.66545 0.813367 2.63076 0.840524 2.63054L1.05034 2.62891L1.11671 2.42985C1.12543 2.40407 1.1619 2.40407 1.17049 2.42985Z" fill="#F5F5F5"/>
<path d="M1.17049 4.27153L1.23687 4.47059L1.44668 4.47221C1.47384 4.47243 1.48512 4.50709 1.46327 4.52324L1.29446 4.6479L1.35774 4.84796C1.36593 4.87387 1.33646 4.89527 1.31434 4.87949L1.14362 4.75749L0.972899 4.87949C0.950805 4.89527 0.921305 4.87387 0.929493 4.84796L0.992774 4.6479L0.823961 4.52324C0.802117 4.50712 0.813367 4.47243 0.840524 4.47221L1.05034 4.47059L1.11671 4.27153C1.12543 4.24575 1.1619 4.24575 1.17049 4.27153Z" fill="#F5F5F5"/>
<path d="M1.17049 5.96359L1.23687 6.16265L1.44668 6.16428C1.47384 6.1645 1.48512 6.19915 1.46327 6.21531L1.29446 6.33996L1.35774 6.54002C1.36593 6.56593 1.33646 6.58734 1.31434 6.57156L1.14362 6.44953L0.972899 6.57156C0.950805 6.58734 0.921305 6.56593 0.929493 6.54002L0.992774 6.33996L0.823961 6.21531C0.802117 6.19918 0.813367 6.1645 0.840524 6.16428L1.05034 6.16265L1.11671 5.96359C1.12543 5.93781 1.1619 5.93781 1.17049 5.96359Z" fill="#F5F5F5"/>
<path d="M1.17049 7.50327L1.23687 7.70233L1.44668 7.70396C1.47384 7.70418 1.48512 7.73883 1.46327 7.75499L1.29446 7.87965L1.35774 8.07971C1.36593 8.10561 1.33646 8.12702 1.31434 8.11124L1.14362 7.98924L0.972899 8.11124C0.950805 8.12702 0.921305 8.10561 0.929493 8.07971L0.992774 7.87965L0.823961 7.75499C0.802117 7.73887 0.813367 7.70418 0.840524 7.70396L1.05034 7.70233L1.11671 7.50327C1.12543 7.47749 1.1619 7.47749 1.17049 7.50327Z" fill="#F5F5F5"/>
<path d="M1.97873 1.55566L2.0451 1.75473L2.25492 1.75635C2.28207 1.75657 2.29335 1.79123 2.27151 1.80735L2.1027 1.93201L2.16598 2.13207C2.17417 2.15798 2.1447 2.17941 2.12257 2.1636L1.95192 2.04157L1.7812 2.1636C1.75911 2.17941 1.72961 2.15798 1.73779 2.13207L1.80107 1.93201L1.63229 1.80735C1.61045 1.79123 1.6217 1.75654 1.64886 1.75635L1.85867 1.75473L1.92504 1.55566C1.93367 1.52988 1.97014 1.52988 1.97873 1.55566Z" fill="#F5F5F5"/>
<path d="M1.9787 3.39732L2.04508 3.59639L2.25489 3.59801C2.28204 3.59823 2.29332 3.63289 2.27148 3.64904L2.10267 3.7737L2.16595 3.97376C2.17414 3.99967 2.14467 4.02111 2.12254 4.00529L1.95183 3.88326L1.78111 4.00529C1.75901 4.02111 1.72951 3.99967 1.7377 3.97376L1.80098 3.7737L1.6322 3.64904C1.61036 3.63292 1.62161 3.59823 1.64876 3.59801L1.85858 3.59639L1.92495 3.39732C1.93364 3.37154 1.97011 3.37154 1.9787 3.39732Z" fill="#F5F5F5"/>
<path d="M1.9787 5.14702L2.04508 5.34608L2.25489 5.34771C2.28204 5.34793 2.29332 5.38258 2.27148 5.39874L2.10267 5.5234L2.16595 5.72346C2.17414 5.74937 2.14467 5.77077 2.12254 5.75499L1.95183 5.63296L1.78111 5.75499C1.75901 5.7708 1.72951 5.74937 1.7377 5.72346L1.80098 5.5234L1.6322 5.39874C1.61036 5.38261 1.62161 5.34793 1.64876 5.34771L1.85858 5.34608L1.92495 5.14702C1.93364 5.12127 1.97011 5.12127 1.9787 5.14702Z" fill="#F5F5F5"/>
<path d="M1.9787 6.71833L2.04508 6.91739L2.25489 6.91902C2.28204 6.91924 2.29332 6.95389 2.27148 6.97005L2.10267 7.0947L2.16595 7.29477C2.17414 7.32067 2.14467 7.34211 2.12254 7.3263L1.95183 7.2043L1.78111 7.3263C1.75901 7.34211 1.72951 7.32067 1.7377 7.29477L1.80098 7.0947L1.6322 6.97005C1.61036 6.95392 1.62161 6.91924 1.64876 6.91902L1.85858 6.91739L1.92495 6.71833C1.93364 6.69255 1.97011 6.69255 1.9787 6.71833Z" fill="#F5F5F5"/>
<path d="M2.7869 0.769313L2.85327 0.968375L3.06309 0.97C3.09024 0.970219 3.10152 1.00488 3.07968 1.021L2.91087 1.14566L2.97415 1.34572C2.98234 1.37162 2.95287 1.39303 2.93074 1.37725L2.76002 1.25522L2.58931 1.37725C2.56721 1.39306 2.53771 1.37162 2.5459 1.34572L2.60918 1.14566L2.4404 1.021C2.41856 1.00488 2.42981 0.970188 2.45696 0.97L2.66677 0.968375L2.73315 0.769313C2.74184 0.743563 2.7783 0.743563 2.7869 0.769313Z" fill="#F5F5F5"/>
<path d="M2.7869 2.42985L2.85327 2.62891L3.06309 2.63054C3.09024 2.63076 3.10152 2.66541 3.07968 2.68157L2.91087 2.80623L2.97415 3.00629C2.98234 3.0322 2.95287 3.0536 2.93074 3.03782L2.76002 2.91579L2.58931 3.03782C2.56721 3.05363 2.53771 3.0322 2.5459 3.00629L2.60918 2.80623L2.4404 2.68157C2.41856 2.66545 2.42981 2.63076 2.45696 2.63054L2.66677 2.62891L2.73315 2.42985C2.74184 2.40407 2.7783 2.40407 2.7869 2.42985Z" fill="#F5F5F5"/>
<path d="M2.7869 4.27153L2.85327 4.47059L3.06309 4.47221C3.09024 4.47243 3.10152 4.50709 3.07968 4.52324L2.91087 4.6479L2.97415 4.84796C2.98234 4.87387 2.95287 4.89527 2.93074 4.87949L2.76002 4.75749L2.58931 4.87949C2.56721 4.89527 2.53771 4.87387 2.5459 4.84796L2.60918 4.6479L2.4404 4.52324C2.41856 4.50712 2.42981 4.47243 2.45696 4.47221L2.66677 4.47059L2.73315 4.27153C2.74184 4.24575 2.7783 4.24575 2.7869 4.27153Z" fill="#F5F5F5"/>
<path d="M2.7869 5.96359L2.85327 6.16265L3.06309 6.16428C3.09024 6.1645 3.10152 6.19915 3.07968 6.21531L2.91087 6.33996L2.97415 6.54002C2.98234 6.56593 2.95287 6.58734 2.93074 6.57156L2.76002 6.44953L2.58931 6.57156C2.56721 6.58734 2.53771 6.56593 2.5459 6.54002L2.60918 6.33996L2.4404 6.21531C2.41856 6.19918 2.42981 6.1645 2.45696 6.16428L2.66677 6.16265L2.73315 5.96359C2.74184 5.93781 2.7783 5.93781 2.7869 5.96359Z" fill="#F5F5F5"/>
<path d="M2.7869 7.50327L2.85327 7.70233L3.06309 7.70396C3.09024 7.70418 3.10152 7.73883 3.07968 7.75499L2.91087 7.87965L2.97415 8.07971C2.98234 8.10561 2.95287 8.12702 2.93074 8.11124L2.76002 7.98924L2.58931 8.11124C2.56721 8.12702 2.53771 8.10561 2.5459 8.07971L2.60918 7.87965L2.4404 7.75499C2.41856 7.73887 2.42981 7.70418 2.45696 7.70396L2.66677 7.70233L2.73315 7.50327C2.74184 7.47749 2.7783 7.47749 2.7869 7.50327Z" fill="#F5F5F5"/>
<path d="M3.59511 1.55566L3.66148 1.75473L3.8713 1.75635C3.89845 1.75657 3.90973 1.79123 3.88786 1.80735L3.71908 1.93201L3.78236 2.13207C3.79055 2.15798 3.76108 2.17941 3.73895 2.1636L3.56823 2.04157L3.39752 2.1636C3.37542 2.17941 3.34592 2.15798 3.35411 2.13207L3.41739 1.93201L3.24858 1.80735C3.22673 1.79123 3.23798 1.75654 3.26517 1.75635L3.47498 1.75473L3.54136 1.55566C3.55008 1.52988 3.58652 1.52988 3.59511 1.55566Z" fill="#F5F5F5"/>
<path d="M3.59511 3.39732L3.66148 3.59639L3.8713 3.59801C3.89845 3.59823 3.90973 3.63289 3.88786 3.64904L3.71908 3.7737L3.78236 3.97376C3.79055 3.99967 3.76108 4.02111 3.73895 4.00529L3.56823 3.88326L3.39752 4.00529C3.37542 4.02111 3.34592 3.99967 3.35411 3.97376L3.41739 3.7737L3.24858 3.64904C3.22673 3.63292 3.23798 3.59823 3.26517 3.59801L3.47498 3.59639L3.54136 3.39732C3.55008 3.37154 3.58652 3.37154 3.59511 3.39732Z" fill="#F5F5F5"/>
<path d="M3.59511 5.14702L3.66148 5.34608L3.8713 5.34771C3.89845 5.34793 3.90973 5.38258 3.88786 5.39874L3.71908 5.5234L3.78236 5.72346C3.79055 5.74937 3.76108 5.77077 3.73895 5.75499L3.56823 5.63296L3.39752 5.75499C3.37542 5.7708 3.34592 5.74937 3.35411 5.72346L3.41739 5.5234L3.24858 5.39874C3.22673 5.38261 3.23798 5.34793 3.26517 5.34771L3.47498 5.34608L3.54136 5.14702C3.55008 5.12127 3.58652 5.12127 3.59511 5.14702Z" fill="#F5F5F5"/>
<path d="M3.59511 6.71833L3.66148 6.91739L3.8713 6.91902C3.89845 6.91924 3.90973 6.95389 3.88786 6.97005L3.71908 7.0947L3.78236 7.29477C3.79055 7.32067 3.76108 7.34211 3.73895 7.3263L3.56823 7.2043L3.39752 7.3263C3.37542 7.34211 3.34592 7.32067 3.35411 7.29477L3.41739 7.0947L3.24858 6.97005C3.22673 6.95392 3.23798 6.91924 3.26517 6.91902L3.47498 6.91739L3.54136 6.71833C3.55008 6.69255 3.58652 6.69255 3.59511 6.71833Z" fill="#F5F5F5"/>
<path d="M4.4034 0.769313L4.46977 0.968375L4.67959 0.97C4.70674 0.970219 4.71802 1.00488 4.69615 1.021L4.52737 1.14566L4.59065 1.34572C4.59884 1.37162 4.56937 1.39303 4.54724 1.37725L4.37652 1.25522L4.2058 1.37725C4.18371 1.39306 4.15421 1.37162 4.1624 1.34572L4.22568 1.14566L4.05689 1.021C4.03505 1.00488 4.0463 0.970188 4.07349 0.97L4.2833 0.968375L4.34968 0.769313C4.35837 0.743563 4.3948 0.743563 4.4034 0.769313Z" fill="#F5F5F5"/>
<path d="M4.40334 2.42985L4.46971 2.62891L4.67952 2.63054C4.70668 2.63076 4.71796 2.66541 4.69609 2.68157L4.5273 2.80623L4.59062 3.00626C4.5988 3.03216 4.56934 3.05357 4.54721 3.03779L4.37649 2.91576L4.20578 3.03779C4.18368 3.0536 4.15418 3.03216 4.16237 3.00626L4.22565 2.80619L4.05687 2.68154C4.03503 2.66541 4.04628 2.63072 4.07346 2.63051L4.28328 2.62888L4.34965 2.42982C4.35831 2.40407 4.39474 2.40407 4.40334 2.42985Z" fill="#F5F5F5"/>
<path d="M4.4034 4.27153L4.46977 4.47059L4.67959 4.47221C4.70674 4.47243 4.71802 4.50709 4.69615 4.52324L4.52737 4.6479L4.59065 4.84796C4.59884 4.87387 4.56937 4.89527 4.54724 4.87949L4.37652 4.75749L4.2058 4.87949C4.18371 4.89527 4.15421 4.87387 4.1624 4.84796L4.22568 4.6479L4.05689 4.52324C4.03505 4.50712 4.0463 4.47243 4.07349 4.47221L4.2833 4.47059L4.34968 4.27153C4.35837 4.24575 4.3948 4.24575 4.4034 4.27153Z" fill="#F5F5F5"/>
<path d="M4.4034 5.96359L4.46977 6.16265L4.67959 6.16428C4.70674 6.1645 4.71802 6.19915 4.69615 6.21531L4.52737 6.33996L4.59065 6.54002C4.59884 6.56593 4.56937 6.58734 4.54724 6.57156L4.37652 6.44953L4.2058 6.57156C4.18371 6.58734 4.15421 6.56593 4.1624 6.54002L4.22568 6.33996L4.05689 6.21531C4.03505 6.19918 4.0463 6.1645 4.07349 6.16428L4.2833 6.16265L4.34968 5.96359C4.35837 5.93781 4.3948 5.93781 4.4034 5.96359Z" fill="#F5F5F5"/>
<path d="M4.4034 7.50327L4.46977 7.70233L4.67959 7.70396C4.70674 7.70418 4.71802 7.73883 4.69615 7.75499L4.52737 7.87965L4.59065 8.07971C4.59884 8.10561 4.56937 8.12702 4.54724 8.11124L4.37652 7.98924L4.2058 8.11124C4.18371 8.12702 4.15421 8.10561 4.1624 8.07971L4.22568 7.87965L4.05689 7.75499C4.03505 7.73887 4.0463 7.70418 4.07349 7.70396L4.2833 7.70233L4.34968 7.50327C4.35837 7.47749 4.3948 7.47749 4.4034 7.50327Z" fill="#F5F5F5"/>
<path d="M5.21163 1.55566L5.278 1.75473L5.48781 1.75635C5.51497 1.75657 5.52625 1.79123 5.50438 1.80735L5.33556 1.93201L5.39884 2.13207C5.40703 2.15798 5.37753 2.17941 5.35544 2.1636L5.18472 2.04157L5.014 2.1636C4.99191 2.17941 4.96241 2.15798 4.9706 2.13207L5.03388 1.93201L4.8651 1.80735C4.84325 1.79123 4.8545 1.75654 4.88166 1.75635L5.09147 1.75473L5.15784 1.55566C5.16659 1.52988 5.20303 1.52988 5.21163 1.55566Z" fill="#F5F5F5"/>
<path d="M5.21163 3.39732L5.278 3.59639L5.48781 3.59801C5.51497 3.59823 5.52625 3.63289 5.50438 3.64904L5.33556 3.7737L5.39884 3.97376C5.40703 3.99967 5.37753 4.02111 5.35544 4.00529L5.18472 3.88326L5.014 4.00529C4.99191 4.02111 4.96241 3.99967 4.9706 3.97376L5.03388 3.7737L4.8651 3.64904C4.84325 3.63292 4.8545 3.59823 4.88166 3.59801L5.09147 3.59639L5.15784 3.39732C5.16659 3.37154 5.20303 3.37154 5.21163 3.39732Z" fill="#F5F5F5"/>
<path d="M5.21163 5.14702L5.278 5.34608L5.48781 5.34771C5.51497 5.34793 5.52625 5.38258 5.50438 5.39874L5.33556 5.5234L5.39884 5.72346C5.40703 5.74937 5.37753 5.77077 5.35544 5.75499L5.18472 5.63296L5.014 5.75499C4.99191 5.7708 4.96241 5.74937 4.9706 5.72346L5.03388 5.5234L4.8651 5.39874C4.84325 5.38261 4.8545 5.34793 4.88166 5.34771L5.09147 5.34608L5.15784 5.14702C5.16659 5.12127 5.20303 5.12127 5.21163 5.14702Z" fill="#F5F5F5"/>
<path d="M5.21163 6.71833L5.278 6.91739L5.48781 6.91902C5.51497 6.91924 5.52625 6.95389 5.50438 6.97005L5.33556 7.0947L5.39884 7.29477C5.40703 7.32067 5.37753 7.34211 5.35544 7.3263L5.18472 7.2043L5.014 7.3263C4.99191 7.34211 4.96241 7.32067 4.9706 7.29477L5.03388 7.0947L4.8651 6.97005C4.84325 6.95392 4.8545 6.91924 4.88166 6.91902L5.09147 6.91739L5.15784 6.71833C5.16659 6.69255 5.20303 6.69255 5.21163 6.71833Z" fill="#F5F5F5"/>
<path d="M6.01983 0.769313L6.08621 0.968375L6.29602 0.97C6.32318 0.970219 6.33446 1.00488 6.31258 1.021L6.14377 1.14566L6.20705 1.34572C6.21524 1.37162 6.18574 1.39303 6.16365 1.37725L5.99293 1.25522L5.82221 1.37725C5.80011 1.39306 5.77061 1.37162 5.7788 1.34572L5.84208 1.14566L5.67327 1.021C5.65143 1.00488 5.66268 0.970188 5.68986 0.97L5.89968 0.968375L5.96605 0.769313C5.9748 0.743563 6.01124 0.743563 6.01983 0.769313Z" fill="#F5F5F5"/>
<path d="M6.01983 2.42985L6.08621 2.62891L6.29602 2.63054C6.32318 2.63076 6.33446 2.66541 6.31258 2.68157L6.14377 2.80623L6.20705 3.00629C6.21524 3.0322 6.18574 3.0536 6.16365 3.03782L5.99293 2.91579L5.82221 3.03782C5.80011 3.05363 5.77061 3.0322 5.7788 3.00629L5.84208 2.80623L5.67327 2.68157C5.65143 2.66545 5.66268 2.63076 5.68986 2.63054L5.89968 2.62891L5.96605 2.42985C5.9748 2.40407 6.01124 2.40407 6.01983 2.42985Z" fill="#F5F5F5"/>
<path d="M6.01983 4.27153L6.08621 4.47059L6.29602 4.47221C6.32318 4.47243 6.33446 4.50709 6.31258 4.52324L6.14377 4.6479L6.20705 4.84796C6.21524 4.87387 6.18574 4.89527 6.16365 4.87949L5.99293 4.75749L5.82221 4.87949C5.80011 4.89527 5.77061 4.87387 5.7788 4.84796L5.84208 4.6479L5.67327 4.52324C5.65143 4.50712 5.66268 4.47243 5.68986 4.47221L5.89968 4.47059L5.96605 4.27153C5.9748 4.24575 6.01124 4.24575 6.01983 4.27153Z" fill="#F5F5F5"/>
<path d="M6.01983 5.96359L6.08621 6.16265L6.29602 6.16428C6.32318 6.1645 6.33446 6.19915 6.31258 6.21531L6.14377 6.33996L6.20705 6.54002C6.21524 6.56593 6.18574 6.58734 6.16365 6.57156L5.99293 6.44953L5.82221 6.57156C5.80011 6.58734 5.77061 6.56593 5.7788 6.54002L5.84208 6.33996L5.67327 6.21531C5.65143 6.19918 5.66268 6.1645 5.68986 6.16428L5.89968 6.16265L5.96605 5.96359C5.9748 5.93781 6.01124 5.93781 6.01983 5.96359Z" fill="#F5F5F5"/>
<path d="M6.01983 7.50327L6.08621 7.70233L6.29602 7.70396C6.32318 7.70418 6.33446 7.73883 6.31258 7.75499L6.14377 7.87965L6.20705 8.07971C6.21524 8.10561 6.18574 8.12702 6.16365 8.11124L5.99293 7.98924L5.82221 8.11124C5.80011 8.12702 5.77061 8.10561 5.7788 8.07971L5.84208 7.87965L5.67327 7.75499C5.65143 7.73887 5.66268 7.70418 5.68986 7.70396L5.89968 7.70233L5.96605 7.50327C5.9748 7.47749 6.01124 7.47749 6.01983 7.50327Z" fill="#F5F5F5"/>
<path d="M6.82801 1.55566L6.89439 1.75473L7.10423 1.75635C7.13139 1.75657 7.14267 1.79123 7.12079 1.80735L6.95198 1.93201L7.01526 2.13207C7.02345 2.15798 6.99395 2.17941 6.97186 2.1636L6.80114 2.04157L6.63042 2.1636C6.60833 2.17941 6.57883 2.15798 6.58701 2.13207L6.65029 1.93201L6.48148 1.80735C6.45964 1.79123 6.47089 1.75654 6.49804 1.75635L6.70789 1.75473L6.77426 1.55566C6.78298 1.52988 6.81942 1.52988 6.82801 1.55566Z" fill="#F5F5F5"/>
<path d="M6.82801 3.39732L6.89439 3.59639L7.10423 3.59801C7.13139 3.59823 7.14267 3.63289 7.12079 3.64904L6.95198 3.7737L7.01526 3.97376C7.02345 3.99967 6.99395 4.02111 6.97186 4.00529L6.80114 3.88326L6.63042 4.00529C6.60833 4.02111 6.57883 3.99967 6.58701 3.97376L6.65029 3.7737L6.48148 3.64904C6.45964 3.63292 6.47089 3.59823 6.49804 3.59801L6.70789 3.59639L6.77426 3.39732C6.78298 3.37154 6.81942 3.37154 6.82801 3.39732Z" fill="#F5F5F5"/>
<path d="M6.82801 5.14702L6.89439 5.34608L7.10423 5.34771C7.13139 5.34793 7.14267 5.38258 7.12079 5.39874L6.95198 5.5234L7.01526 5.72346C7.02345 5.74937 6.99395 5.77077 6.97186 5.75499L6.80114 5.63296L6.63042 5.75499C6.60833 5.7708 6.57883 5.74937 6.58701 5.72346L6.65029 5.5234L6.48148 5.39874C6.45964 5.38261 6.47089 5.34793 6.49804 5.34771L6.70789 5.34608L6.77426 5.14702C6.78298 5.12127 6.81942 5.12127 6.82801 5.14702Z" fill="#F5F5F5"/>
<path d="M6.82801 6.71833L6.89439 6.91739L7.10423 6.91902C7.13139 6.91924 7.14267 6.95389 7.12079 6.97005L6.95198 7.0947L7.01526 7.29477C7.02345 7.32067 6.99395 7.34211 6.97186 7.3263L6.80114 7.2043L6.63042 7.3263C6.60833 7.34211 6.57883 7.32067 6.58701 7.29477L6.65029 7.0947L6.48148 6.97005C6.45964 6.95392 6.47089 6.91924 6.49804 6.91902L6.70789 6.91739L6.77426 6.71833C6.78298 6.69255 6.81942 6.69255 6.82801 6.71833Z" fill="#F5F5F5"/>
<path d="M7.63622 0.769313L7.70259 0.968375L7.9124 0.97C7.93956 0.970219 7.95084 1.00488 7.929 1.021L7.76018 1.14566L7.82347 1.34572C7.83165 1.37162 7.80215 1.39303 7.78006 1.37725L7.60934 1.25522L7.43862 1.37725C7.41653 1.39306 7.38703 1.37162 7.39521 1.34572L7.4585 1.14566L7.28968 1.021C7.26784 1.00488 7.27909 0.970188 7.30625 0.97L7.51606 0.968375L7.58243 0.769313C7.59118 0.743563 7.62762 0.743563 7.63622 0.769313Z" fill="#F5F5F5"/>
<path d="M7.63622 2.42985L7.70259 2.62891L7.9124 2.63054C7.93956 2.63076 7.95084 2.66541 7.929 2.68157L7.76018 2.80623L7.82347 3.00629C7.83165 3.0322 7.80215 3.0536 7.78006 3.03782L7.60934 2.91579L7.43862 3.03782C7.41653 3.05363 7.38703 3.0322 7.39521 3.00629L7.4585 2.80623L7.28968 2.68157C7.26784 2.66545 7.27909 2.63076 7.30625 2.63054L7.51606 2.62891L7.58243 2.42985C7.59118 2.40407 7.62762 2.40407 7.63622 2.42985Z" fill="#F5F5F5"/>
<path d="M7.63622 4.27153L7.70259 4.47059L7.9124 4.47221C7.93956 4.47243 7.95084 4.50709 7.929 4.52324L7.76018 4.6479L7.82347 4.84796C7.83165 4.87387 7.80215 4.89527 7.78006 4.87949L7.60934 4.75749L7.43862 4.87949C7.41653 4.89527 7.38703 4.87387 7.39521 4.84796L7.4585 4.6479L7.28968 4.52324C7.26784 4.50712 7.27909 4.47243 7.30625 4.47221L7.51606 4.47059L7.58243 4.27153C7.59118 4.24575 7.62762 4.24575 7.63622 4.27153Z" fill="#F5F5F5"/>
<path d="M7.63622 5.96359L7.70259 6.16265L7.9124 6.16428C7.93956 6.1645 7.95084 6.19915 7.929 6.21531L7.76018 6.33996L7.82347 6.54002C7.83165 6.56593 7.80215 6.58734 7.78006 6.57156L7.60934 6.44953L7.43862 6.57156C7.41653 6.58734 7.38703 6.56593 7.39521 6.54002L7.4585 6.33996L7.28968 6.21531C7.26784 6.19918 7.27909 6.1645 7.30625 6.16428L7.51606 6.16265L7.58243 5.96359C7.59118 5.93781 7.62762 5.93781 7.63622 5.96359Z" fill="#F5F5F5"/>
<path d="M7.63622 7.50327L7.70259 7.70233L7.9124 7.70396C7.93956 7.70418 7.95084 7.73883 7.929 7.75499L7.76018 7.87965L7.82347 8.07971C7.83165 8.10561 7.80215 8.12702 7.78006 8.11124L7.60934 7.98924L7.43862 8.11124C7.41653 8.12702 7.38703 8.10561 7.39521 8.07971L7.4585 7.87965L7.28968 7.75499C7.26784 7.73887 7.27909 7.70418 7.30625 7.70396L7.51606 7.70233L7.58243 7.50327C7.59118 7.47749 7.62762 7.47749 7.63622 7.50327Z" fill="#F5F5F5"/>
</svg>
